<svg width="33" height="24" viewBox="0 0 33 24" fill="none" xmlns="http://www.w3.org/2000/svg">
<path d="M27.887 0.0546527C27.8058 0.0978165 27.7245 0.14098 27.6408 0.185452C26.6151 0.738776 25.638 1.35951 24.6613 1.99455C24.4485 2.13277 24.2352 2.27018 24.0215 2.40715C23.4753 2.75783 22.9341 3.11004 22.412 3.49631C22.2488 3.59867 22.1168 3.63487 21.9306 3.67679C21.3899 5.80467 20.8626 7.93306 20.3986 10.0791C20.2696 10.6751 20.1386 11.2706 20.007 11.866C19.9644 12.0593 19.9222 12.2527 19.8801 12.4461C19.8544 12.5627 19.8287 12.6793 19.8029 12.796C19.7805 12.8985 19.758 13.001 19.7349 13.1067C19.6769 13.3358 19.6769 13.3358 19.5964 13.4163C19.4229 13.4405 19.2487 13.4598 19.0744 13.477C19.0219 13.4822 18.9694 13.4875 18.9152 13.4929C18.8037 13.5039 18.6922 13.5148 18.5807 13.5256C18.4109 13.5419 18.2412 13.5588 18.0714 13.5759C17.1659 13.6651 17.1659 13.6651 16.7791 13.6578C16.9499 13.1294 17.1393 12.61 17.3385 12.0917C17.3688 12.0125 17.3991 11.9334 17.4303 11.8519C17.4943 11.6848 17.5583 11.5178 17.6225 11.3508C17.7184 11.101 17.8141 10.8511 17.9096 10.6011C18.3019 9.57721 18.703 8.55719 19.1134 7.5404C19.0791 7.57508 19.0447 7.60977 19.0093 7.6455C18.9146 7.74116 18.8198 7.83682 18.725 7.93246C18.6265 8.03199 18.5281 8.13164 18.4297 8.23136C18.1903 8.47186 17.9479 8.70358 17.6897 8.92385C17.2142 9.33425 16.7785 9.78626 16.3364 10.2318C16.2463 10.3224 16.1562 10.4129 16.066 10.5034C15.8474 10.7229 15.629 10.9426 15.4108 11.1625C15.1481 11.0539 15.041 10.9655 14.9195 10.7092C14.8905 10.6492 14.8615 10.5892 14.8316 10.5274C14.8013 10.4623 14.771 10.3973 14.7398 10.3303C14.7075 10.2629 14.6751 10.1956 14.6418 10.1262C14.5383 9.91029 14.4362 9.69381 14.3342 9.47724C13.7456 7.94724 13.7456 7.94724 12.7546 6.73548C12.5292 6.65556 12.5292 6.65556 12.2917 6.59965C12.2125 6.57942 12.1332 6.55919 12.0515 6.53834C11.9913 6.52371 11.9311 6.50908 11.8691 6.49401C11.8691 6.28151 11.8691 6.06901 11.8691 5.85007C12.435 5.53178 13.0349 5.35658 13.6531 5.17139C13.8911 5.09776 14.1245 5.01185 14.3572 4.92284C14.6016 4.86665 14.8392 4.87847 15.0888 4.88417C15.1278 4.96313 15.1668 5.04209 15.207 5.12344C15.2615 5.2332 15.316 5.34293 15.3705 5.45264C15.3991 5.5102 15.4277 5.56775 15.4572 5.62705C15.6878 6.08852 15.9289 6.5436 16.1803 6.99411C16.3046 7.22129 16.3767 7.35748 16.3767 7.62089C16.8141 7.27627 17.2455 6.92542 17.6696 6.56444C18.3054 6.02338 18.9508 5.4941 19.5964 4.96466C19.6816 4.89465 19.7668 4.82464 19.852 4.75463C20.266 4.415 20.6826 4.07907 21.1021 3.74628C21.2738 3.60677 21.4388 3.46209 21.6036 3.31458C21.8501 3.11335 21.8501 3.11335 22.0916 3.11335C22.2111 2.71491 22.2111 2.71491 22.3331 2.30843C20.8918 3.24515 19.5322 4.29879 18.1827 5.36209C17.0517 6.25253 17.0517 6.25253 16.8596 6.25253C16.8246 6.17959 16.7895 6.10664 16.7534 6.03149C16.4985 5.50814 16.2404 5.00984 15.8991 4.53579C15.8132 4.40122 15.8132 4.40122 15.8132 4.24023C15.8833 4.21636 15.9533 4.19249 16.0254 4.1679C17.809 3.55949 17.809 3.55949 19.5803 2.91652C19.9892 2.76384 20.4014 2.62048 20.8146 2.47969C21.224 2.33782 21.6173 2.1671 22.0111 1.98646C21.6909 1.90922 21.3706 1.83212 21.0502 1.75504C20.9154 1.72252 20.9154 1.72252 20.7778 1.68933C20.2776 1.56905 19.777 1.45232 19.2744 1.34252C19.2744 1.31596 19.2744 1.2894 19.2744 1.26203C20.097 1.1365 20.9184 1.02234 21.7468 0.941754C23.555 0.764854 25.3681 0.478398 27.1364 0.0570305C27.4195 -0.00821546 27.6097 -0.0281777 27.887 0.0546527Z" fill="#F2F2F2"/>
<path d="M19.7771 2.0618C19.8489 2.06252 19.9207 2.06325 19.9947 2.064C20.049 2.06493 20.1034 2.06587 20.1594 2.06683C19.9575 2.2687 19.7849 2.31525 19.5148 2.40892C19.4653 2.4262 19.4157 2.44348 19.3647 2.46129C19.2005 2.51826 19.0361 2.57438 18.8715 2.63027C18.8153 2.6494 18.7591 2.66853 18.7012 2.68824C18.3409 2.81049 17.9802 2.93121 17.6192 3.0512C17.4334 3.11299 17.2477 3.17503 17.062 3.2371C16.3639 3.46989 15.6641 3.69521 14.9606 3.91136C14.7151 3.98936 14.4742 4.07386 14.2332 4.16465C13.8292 4.31502 13.4195 4.43111 13.0044 4.54667C12.6077 4.65947 12.216 4.78765 11.8235 4.91423C10.5016 5.33724 9.17173 5.70561 7.82402 6.03608C7.76642 6.05034 7.70882 6.06459 7.64947 6.07928C7.04592 6.22812 6.4531 6.36576 5.83185 6.41339C5.85841 6.46652 5.88497 6.51964 5.91234 6.57437C6.14324 6.62268 6.36806 6.65928 6.60155 6.69008C6.6754 6.70025 6.74925 6.71042 6.82534 6.72089C7.56018 6.81788 8.29783 6.88472 9.03587 6.95158C9.80165 7.02096 10.5666 7.09484 11.3305 7.18309C11.4144 7.19233 11.4984 7.20156 11.5849 7.21108C11.7 7.22477 11.7 7.22477 11.8175 7.23875C11.8841 7.24648 11.9508 7.25422 12.0194 7.26219C12.1907 7.2988 12.1907 7.2988 12.4322 7.45978C12.3506 7.96745 12.2422 8.46728 12.1303 8.96901C12.111 9.0599 12.0917 9.15079 12.0719 9.24444C11.9236 9.90459 11.7523 10.5677 11.25 11.0467C10.95 11.2331 10.7774 11.3117 10.4199 11.2429C10.0383 10.8441 9.53448 10.0333 9.53448 9.47208C9.16451 9.43075 8.79454 9.38949 8.42456 9.34827C8.29271 9.33357 8.16086 9.31885 8.02902 9.30411C7.34037 9.2271 6.65172 9.15076 5.96233 9.08063C5.80992 9.06496 5.80992 9.06496 5.65444 9.04897C5.46535 9.02966 5.27623 9.01077 5.08706 8.99233C3.98508 8.87923 3.98508 8.87923 3.62335 8.5917C3.21878 7.79874 3.64214 6.78711 3.8496 5.97902C3.91667 5.7004 3.96897 5.41973 4.01899 5.13761C4.12711 4.69246 4.42198 4.41405 4.78545 4.15962C5.51918 3.73754 6.57764 3.77376 7.40333 3.68122C7.48924 3.67132 7.57515 3.66141 7.66367 3.6512C7.74098 3.64253 7.8183 3.63386 7.89795 3.62492C8.08697 3.60578 8.08697 3.60578 8.24661 3.51568C8.45033 3.4833 8.65331 3.4545 8.85784 3.42827C8.91987 3.4201 8.9819 3.41193 9.04581 3.40352C9.2489 3.37687 9.45205 3.35068 9.65521 3.32451C9.79498 3.3063 9.93474 3.28809 10.0745 3.26986C10.9521 3.15598 11.8302 3.04784 12.71 2.95133C13.317 2.8842 13.9206 2.79883 14.525 2.71076C14.9977 2.64283 15.4707 2.57595 15.9436 2.50953C16.007 2.50064 16.0703 2.49174 16.1355 2.48258C16.9486 2.36882 17.7608 2.26211 18.579 2.19118C18.8958 2.16414 18.8958 2.16414 19.2073 2.10361C19.4 2.05545 19.5788 2.05919 19.7771 2.0618Z" fill="#00FF88"/>
<path d="M13.2376 10.2773C13.0665 11.1702 12.8236 12.0361 12.5678 12.9077C12.4947 13.1575 12.4234 13.4077 12.3522 13.658C11.53 13.8095 10.7084 13.9266 9.87706 14.0152C9.11075 14.0969 8.3467 14.1883 7.58304 14.2918C7.38118 14.3192 7.17932 14.3466 6.97746 14.3739C6.92537 14.381 6.87327 14.388 6.8196 14.3953C5.66403 14.5513 4.50693 14.6961 3.3502 14.8432C3.1877 14.8639 3.0252 14.8846 2.8627 14.9054C2.59827 14.9392 2.33381 14.9727 2.06934 15.0062C1.99672 15.0155 1.9241 15.0248 1.84928 15.0344C1.35338 15.0967 0.856865 15.1448 0.358887 15.1873C0.358887 15.1342 0.358887 15.0811 0.358887 15.0263C1.7913 14.5436 3.22321 14.0632 4.67021 13.6257C5.20133 13.4644 5.72266 13.2884 6.24329 13.0958C6.54345 12.9905 6.84805 12.9119 7.15574 12.832C7.35743 12.7738 7.54538 12.7025 7.73899 12.6216C8.07237 12.4832 8.41028 12.3701 8.7552 12.2645C10.7936 11.7181 10.7936 11.7181 12.5566 10.6254C12.7573 10.4434 12.9612 10.2773 13.2376 10.2773Z" fill="#F2F2F2"/>
<path d="M3.76594 10.2025C3.90402 10.2095 4.0421 10.2166 4.18018 10.2239C4.32339 10.2264 4.46661 10.2284 4.60984 10.2297C4.98466 10.2349 5.35874 10.2483 5.73327 10.2636C6.11629 10.2776 6.49943 10.2838 6.88263 10.2907C7.63285 10.3053 8.38252 10.3286 9.13232 10.3575C9.18657 10.4595 9.24009 10.5619 9.2933 10.6644C9.32318 10.7213 9.35306 10.7783 9.38385 10.837C9.45428 11.0014 9.45428 11.0014 9.45428 11.2429C8.8624 11.4869 8.26381 11.7043 7.65831 11.912C7.56759 11.9433 7.47687 11.9746 7.3834 12.0068C6.72753 12.2325 6.07016 12.4535 5.41057 12.668C5.12696 12.7611 4.85376 12.8582 4.57949 12.977C4.26893 13.1086 3.95815 13.2005 3.63371 13.2904C3.2535 13.3987 2.88168 13.5088 2.51689 13.6627C1.20057 14.2155 1.20057 14.2155 0.680664 14.0601C0.837335 13.7525 0.994583 13.4451 1.1523 13.138C1.2055 13.0342 1.25857 12.9303 1.31147 12.8264C1.44008 12.5738 1.57071 12.3228 1.70583 12.0736C1.83005 11.8423 1.94054 11.6091 2.0453 11.3683C2.45189 10.4936 2.79077 10.1842 3.76594 10.2025Z" fill="#F2F2F2"/>
<path d="M27.8873 0.0546527C27.806 0.0978165 27.7248 0.14098 27.6411 0.185452C26.6153 0.738776 25.6383 1.35951 24.6615 1.99455C24.4487 2.13277 24.2354 2.27018 24.0218 2.40715C23.4724 2.7599 22.9286 3.11423 22.4044 3.50417C22.2528 3.5963 22.2528 3.5963 22.0114 3.5963C21.9317 3.35724 21.9317 3.35724 21.8504 3.11335C21.9301 3.11335 22.0097 3.11335 22.0918 3.11335C22.1715 2.84772 22.2512 2.5821 22.3333 2.30843C20.892 3.24515 19.5324 4.29879 18.183 5.36209C17.052 6.25253 17.052 6.25253 16.8599 6.25253C16.8248 6.17959 16.7897 6.10665 16.7536 6.03149C16.4988 5.50814 16.2406 5.00984 15.8993 4.53579C15.8135 4.40122 15.8135 4.40122 15.8135 4.24023C15.8835 4.21636 15.9535 4.19249 16.0257 4.1679C17.8092 3.55949 17.8092 3.55949 19.5806 2.91652C19.9895 2.76384 20.4017 2.62048 20.8148 2.47969C21.2243 2.33782 21.6176 2.1671 22.0114 1.98646C21.6911 1.90922 21.3708 1.83212 21.0505 1.75504C20.9156 1.72252 20.9156 1.72252 20.778 1.68933C20.2778 1.56905 19.7772 1.45232 19.2746 1.34252C19.2746 1.31596 19.2746 1.2894 19.2746 1.26203C20.0972 1.1365 20.9187 1.02234 21.747 0.941754C23.5553 0.764855 25.3683 0.478398 27.1366 0.0570305C27.4197 -0.00821546 27.6099 -0.0281777 27.8873 0.0546527Z" fill="#00FF88"/>
<path d="M19.1611 21.056C19.6562 21.0571 20.1445 21.0687 20.6382 21.1062C21.4525 21.1616 22.2674 21.1632 23.0833 21.1682C23.3664 21.1699 23.6494 21.1721 23.9324 21.1743C24.6346 21.1799 25.3367 21.1847 26.0388 21.1896C26.6346 21.1937 27.2304 21.1981 27.8261 21.2029C28.1035 21.205 28.3808 21.2067 28.6581 21.2084C28.8296 21.2097 29.0011 21.2111 29.1727 21.2125C29.2485 21.2128 29.3242 21.2131 29.4023 21.2135C29.9464 21.2185 30.4842 21.2569 31.0258 21.3082C31.0258 21.3348 31.0258 21.3613 31.0258 21.3887C30.9479 21.3898 30.9479 21.3898 30.8685 21.391C29.6055 21.4094 28.3426 21.4282 27.0796 21.4475C26.4688 21.4568 25.8581 21.466 25.2473 21.4748C24.7149 21.4825 24.1826 21.4905 23.6502 21.4988C23.3683 21.5032 23.0865 21.5074 22.8046 21.5113C22.4899 21.5157 22.1752 21.5207 21.8605 21.5258C21.7671 21.527 21.6737 21.5282 21.5775 21.5294C21.4916 21.5309 21.4057 21.5324 21.3172 21.5339C21.2428 21.535 21.1684 21.5361 21.0917 21.5373C20.8815 21.5498 20.6869 21.5859 20.4813 21.6302C20.2215 21.6467 19.9619 21.6451 19.7016 21.6453C19.5969 21.6467 19.5969 21.6467 19.4901 21.6482C19.4235 21.6484 19.3568 21.6486 19.2881 21.6487C19.1971 21.6492 19.1971 21.6492 19.1043 21.6497C18.952 21.6302 18.952 21.6302 18.791 21.4692C18.8352 21.1773 18.8523 21.0718 19.1611 21.056Z" fill="#00FF88"/>
<path d="M11.668 20.9989C11.7734 20.9978 11.8788 20.9966 11.9874 20.9955C12.2452 21.0123 12.3805 21.0374 12.5936 21.175C12.5936 21.3344 12.5936 21.4937 12.5936 21.6579C12.3186 21.6603 12.0436 21.6617 11.7686 21.663C11.654 21.664 11.654 21.664 11.5372 21.665C11.161 21.6663 10.7913 21.6581 10.4169 21.6199C9.66041 21.5546 8.90147 21.5494 8.14269 21.5344C7.97804 21.5309 7.81339 21.5274 7.64875 21.5239C7.21844 21.5148 6.78812 21.506 6.3578 21.4973C5.91747 21.4883 5.47715 21.479 5.03683 21.4698C4.17512 21.4517 3.31339 21.4339 2.45166 21.4165C2.45166 21.3899 2.45166 21.3633 2.45166 21.336C3.24716 21.2759 4.03799 21.2415 4.83592 21.2328C4.94506 21.2314 5.05421 21.2299 5.16335 21.2284C5.5054 21.2236 5.84745 21.2194 6.1895 21.2152C8.05519 21.1932 8.05519 21.1932 9.92011 21.1373C10.0391 21.1327 10.0391 21.1327 10.1606 21.1281C10.2694 21.1234 10.2694 21.1234 10.3804 21.1185C10.4743 21.1145 10.4743 21.1145 10.57 21.1104C10.9454 21.0758 11.2831 21.0008 11.668 20.9989Z" fill="#00FF88"/>
<path d="M12.9156 8.02325C13.1221 8.06688 13.2231 8.09076 13.3834 8.23455C13.5196 8.50683 13.4635 8.70514 13.3985 8.98916C13.3843 9.06926 13.3701 9.14936 13.3554 9.23189C13.219 9.90863 13.219 9.90863 12.9156 10.1362C12.6741 10.1965 12.6741 10.1965 12.4326 10.1965C12.4779 9.67668 12.5725 9.20241 12.7194 8.7024C12.7382 8.63657 12.757 8.57073 12.7764 8.5029C12.8223 8.34287 12.8689 8.18304 12.9156 8.02325Z" fill="#F2F2F2"/>
<path d="M1.55524 15.3334C1.72369 15.3334 1.9023 15.345 2.09108 15.3682C2.28276 15.3915 2.46283 15.4321 2.63128 15.4902L2.54851 16.0914C2.46138 16.0885 2.35828 16.087 2.2392 16.087C2.12303 16.087 2.00105 16.087 1.87326 16.087C1.74547 16.0841 1.61914 16.0827 1.49425 16.0827C1.44488 16.0827 1.40277 16.0856 1.36792 16.0914C1.33306 16.0943 1.30402 16.1001 1.28079 16.1088C1.25755 16.1175 1.23868 16.1306 1.22415 16.148C1.21254 16.1626 1.20382 16.1814 1.19802 16.2047C1.19511 16.225 1.19656 16.2453 1.20237 16.2657C1.21108 16.286 1.22996 16.3063 1.25901 16.3266C1.28805 16.347 1.33161 16.3717 1.3897 16.4007L1.89504 16.6403C2.06059 16.7187 2.18547 16.8015 2.26969 16.8886C2.35392 16.9757 2.40765 17.0759 2.43088 17.1892C2.45702 17.2996 2.46138 17.4288 2.44395 17.5769C2.41781 17.8064 2.36118 17.9864 2.27405 18.1171C2.18692 18.2449 2.05623 18.335 1.88197 18.3872C1.71062 18.4366 1.47973 18.4613 1.1893 18.4613C1.06442 18.4613 0.894518 18.4497 0.679602 18.4264C0.467589 18.4061 0.246864 18.3669 0.0174257 18.3088L0.104554 17.651C0.273002 17.6539 0.428381 17.6583 0.570691 17.6641C0.715905 17.667 0.837885 17.6699 0.93663 17.6728C1.03538 17.6728 1.10363 17.6728 1.14138 17.6728C1.23141 17.6728 1.30112 17.6684 1.35049 17.6597C1.40277 17.651 1.44052 17.6379 1.46376 17.6205C1.4899 17.6002 1.50587 17.5755 1.51168 17.5464C1.51749 17.5203 1.51603 17.4985 1.50732 17.4811C1.50151 17.4637 1.48699 17.4477 1.46376 17.4332C1.44052 17.4157 1.40858 17.3969 1.36792 17.3765L0.819007 17.1064C0.650559 17.0222 0.524223 16.9336 0.439998 16.8407C0.355774 16.7449 0.302045 16.6418 0.278811 16.5314C0.255577 16.421 0.25122 16.3049 0.265742 16.1829C0.286072 16.0173 0.325279 15.8794 0.383365 15.769C0.444355 15.6587 0.527127 15.573 0.631681 15.512C0.736235 15.4481 0.865475 15.4031 1.0194 15.3769C1.17333 15.3479 1.35194 15.3334 1.55524 15.3334ZM4.04085 15.3944L3.61828 18.4003H2.67294L3.09551 15.3944H4.04085ZM4.65511 16.4704L4.55927 17.1413H3.76204L3.85353 16.4704H4.65511ZM5.705 15.3944L5.28243 18.4003H4.33709L4.75966 15.3944H5.705ZM7.82256 15.3944C7.89808 15.3944 7.96487 15.4191 8.02296 15.4684C8.08105 15.5178 8.11444 15.5802 8.12316 15.6558L8.51088 18.4003H7.56554L7.4087 16.4268C7.4029 16.3688 7.39999 16.3121 7.39999 16.2569C7.39999 16.2018 7.40144 16.1466 7.40435 16.0914H7.28237C7.27366 16.1379 7.26204 16.1901 7.24752 16.2482C7.2359 16.3034 7.21847 16.36 7.19524 16.4181L6.45901 18.4003H5.47881L6.63762 15.6209C6.66666 15.5454 6.71023 15.4888 6.76831 15.451C6.8264 15.4132 6.89319 15.3944 6.96871 15.3944H7.82256ZM7.96633 17.0759L7.88791 17.7643H6.30653L6.3893 17.0759H7.96633ZM10.3307 15.3508C10.6095 15.3508 10.8419 15.3798 11.0277 15.4379C11.2136 15.496 11.3472 15.5948 11.4285 15.7342C11.5098 15.8707 11.5345 16.0594 11.5026 16.3005C11.4881 16.4138 11.4576 16.5198 11.4111 16.6185C11.3675 16.7144 11.2993 16.7942 11.2063 16.8581C11.1134 16.922 10.9856 16.9627 10.823 16.9801L10.8186 17.0106C10.868 17.0164 10.9203 17.0353 10.9755 17.0672C11.0335 17.0963 11.0844 17.1442 11.1279 17.211C11.1744 17.2778 11.2034 17.3722 11.2151 17.4942L11.3283 18.4003H10.3525L10.2741 17.4898C10.2712 17.4056 10.2581 17.3533 10.2349 17.333C10.2116 17.3126 10.1666 17.3025 10.0998 17.3025C9.87619 17.2996 9.69467 17.2981 9.55526 17.2981C9.41586 17.2981 9.29823 17.2967 9.20239 17.2938C9.10946 17.2909 9.01797 17.2865 8.92794 17.2807L8.99764 16.6359H10.1913C10.2784 16.6359 10.3452 16.6272 10.3917 16.6098C10.4411 16.5924 10.4774 16.559 10.5006 16.5096C10.5267 16.4573 10.5471 16.3847 10.5616 16.2918C10.5732 16.2221 10.5732 16.1669 10.5616 16.1262C10.55 16.0856 10.5253 16.058 10.4875 16.0435C10.4498 16.026 10.3946 16.0173 10.322 16.0173C10.0112 16.0173 9.7513 16.0202 9.54219 16.0261C9.33599 16.029 9.19658 16.0348 9.12398 16.0435L9.11526 15.3944C9.24596 15.3798 9.36794 15.3697 9.4812 15.3639C9.59737 15.3581 9.72226 15.3552 9.85586 15.3552C9.98945 15.3523 10.1477 15.3508 10.3307 15.3508ZM10.0388 15.3944L9.61625 18.4003H8.69269L9.11526 15.3944H10.0388ZM13.2406 15.3508C13.5484 15.3508 13.7909 15.3828 13.9681 15.4466C14.1452 15.5076 14.2658 15.6151 14.3297 15.769C14.3936 15.9229 14.4066 16.1364 14.3689 16.4094C14.334 16.6679 14.273 16.8683 14.1859 17.0106C14.1017 17.1529 13.9782 17.2517 13.8156 17.3068C13.6559 17.362 13.4439 17.3896 13.1796 17.3896C13.0314 17.3896 12.8848 17.3823 12.7396 17.3678C12.5973 17.3504 12.4637 17.3286 12.3388 17.3025C12.2168 17.2763 12.1122 17.2488 12.0251 17.2197C11.938 17.1907 11.8784 17.1645 11.8465 17.1413L11.8726 16.7231C12.0701 16.7231 12.2749 16.7231 12.4869 16.7231C12.6989 16.7231 12.9022 16.7231 13.0968 16.7231C13.1723 16.7231 13.2318 16.7158 13.2754 16.7013C13.319 16.6868 13.3524 16.6519 13.3756 16.5967C13.4017 16.5416 13.4221 16.4559 13.4366 16.3397C13.4482 16.2584 13.4497 16.1945 13.441 16.148C13.4351 16.1016 13.4148 16.0682 13.38 16.0478C13.3451 16.0275 13.2914 16.0173 13.2188 16.0173C12.9196 16.0173 12.6655 16.0202 12.4564 16.0261C12.2502 16.029 12.1108 16.0348 12.0382 16.0435L12.0295 15.3944C12.1602 15.3798 12.2821 15.3697 12.3954 15.3639C12.5087 15.3581 12.6307 15.3552 12.7613 15.3552C12.8949 15.3523 13.0547 15.3508 13.2406 15.3508ZM12.9705 15.3944L12.5479 18.4003H11.6069L12.0295 15.3944H12.9705Z" fill="white"/>
<path d="M19.5254 15.3944C19.6329 15.3944 19.7142 15.4249 19.7694 15.4859C19.8246 15.5468 19.8464 15.6311 19.8348 15.7385L19.5647 18.4003H18.7152L18.9504 16.1001H18.8894L18.3841 17.651C18.355 17.7468 18.31 17.8165 18.249 17.8601C18.188 17.9008 18.1067 17.9211 18.0051 17.9211H17.5258C17.4271 17.9211 17.3472 17.895 17.2862 17.8427C17.2282 17.7875 17.1962 17.712 17.1904 17.6161L17.1076 16.1001H17.0379L16.6415 18.4003H15.792L16.2756 15.7037C16.2959 15.5962 16.3307 15.5178 16.3801 15.4684C16.4324 15.4191 16.5123 15.3944 16.6197 15.3944H17.4213C17.52 15.3944 17.5985 15.422 17.6565 15.4771C17.7146 15.5294 17.7451 15.6049 17.748 15.7037L17.8003 16.8973C17.8061 16.9699 17.8076 17.044 17.8047 17.1195C17.8018 17.1921 17.7974 17.2676 17.7916 17.346H17.8352C17.8526 17.2618 17.87 17.1863 17.8874 17.1195C17.9049 17.0498 17.9237 16.9787 17.9441 16.906L18.31 15.6688C18.3361 15.5701 18.3797 15.5004 18.4407 15.4597C18.5046 15.4162 18.5859 15.3944 18.6847 15.3944H19.5254ZM22.049 15.3944C22.1245 15.3944 22.1913 15.4191 22.2494 15.4684C22.3074 15.5178 22.3408 15.5802 22.3496 15.6558L22.7373 18.4003H21.7919L21.6351 16.4268C21.6293 16.3688 21.6264 16.3121 21.6264 16.2569C21.6264 16.2018 21.6278 16.1466 21.6308 16.0914H21.5088C21.5001 16.1379 21.4884 16.1901 21.4739 16.2482C21.4623 16.3034 21.4449 16.36 21.4216 16.4181L20.6854 18.4003H19.7052L20.864 15.6209C20.8931 15.5454 20.9366 15.4888 20.9947 15.451C21.0528 15.4132 21.1196 15.3944 21.1951 15.3944H22.049ZM22.1927 17.0759L22.1143 17.7643H20.5329L20.6157 17.0759H22.1927ZM24.6765 15.3944L24.2539 18.4003H23.3086L23.7312 15.3944H24.6765ZM25.5086 15.3944L25.4084 16.1001H22.8032L22.9034 15.3944H25.5086ZM26.9948 15.3508C27.2736 15.3508 27.506 15.3798 27.6919 15.4379C27.8777 15.496 28.0113 15.5948 28.0927 15.7342C28.174 15.8707 28.1987 16.0594 28.1667 16.3005C28.1522 16.4138 28.1217 16.5198 28.0752 16.6185C28.0317 16.7144 27.9634 16.7942 27.8705 16.8581C27.7775 16.922 27.6497 16.9627 27.4871 16.9801L27.4828 17.0106C27.5321 17.0164 27.5844 17.0353 27.6396 17.0672C27.6977 17.0963 27.7485 17.1442 27.7921 17.211C27.8385 17.2778 27.8676 17.3722 27.8792 17.4942L27.9925 18.4003H27.0166L26.9382 17.4898C26.9353 17.4056 26.9222 17.3533 26.899 17.333C26.8758 17.3126 26.8307 17.3025 26.7639 17.3025C26.5403 17.2996 26.3588 17.2981 26.2194 17.2981C26.08 17.2981 25.9624 17.2967 25.8665 17.2938C25.7736 17.2909 25.6821 17.2865 25.5921 17.2807L25.6618 16.6359H26.8554C26.9426 16.6359 27.0094 16.6272 27.0558 16.6098C27.1052 16.5924 27.1415 16.559 27.1647 16.5096C27.1909 16.4573 27.2112 16.3847 27.2257 16.2918C27.2373 16.2221 27.2373 16.1669 27.2257 16.1262C27.2141 16.0856 27.1894 16.058 27.1517 16.0435C27.1139 16.026 27.0587 16.0173 26.9861 16.0173C26.6754 16.0173 26.4154 16.0202 26.2063 16.0261C26.0001 16.029 25.8607 16.0348 25.7881 16.0435L25.7794 15.3944C25.9101 15.3798 26.0321 15.3697 26.1453 15.3639C26.2615 15.3581 26.3864 15.3552 26.52 15.3552C26.6536 15.3523 26.8119 15.3508 26.9948 15.3508ZM26.703 15.3944L26.2804 18.4003H25.3568L25.7794 15.3944H26.703ZM29.6389 15.3944L29.2164 18.4003H28.2754L28.698 15.3944H29.6389ZM30.8338 15.3944L31.2476 16.954L30.4286 18.4003H29.4266L30.3763 16.8668L29.9233 15.3944H30.8338ZM31.5787 16.5967L31.5046 17.1195H30.6029L30.6769 16.5967H31.5787ZM32.7637 15.3944L31.8749 16.8668L32.3846 18.4003H31.4567L31.0254 16.771L31.8009 15.3944H32.7637Z" fill="#00FF88"/>
<path d="M15.623 19.7508C15.6985 19.7508 15.7653 19.7755 15.8234 19.8249C15.8814 19.8742 15.9148 19.9367 15.9236 20.0122L16.3113 22.7567H15.3659L15.2091 20.7833C15.2033 20.7252 15.2004 20.6686 15.2004 20.6134C15.2004 20.5582 15.2018 20.503 15.2047 20.4478H15.0828C15.0741 20.4943 15.0624 20.5466 15.0479 20.6047C15.0363 20.6599 15.0189 20.7165 14.9956 20.7746L14.2594 22.7567H13.2792L14.438 19.9773C14.4671 19.9018 14.5106 19.8452 14.5687 19.8074C14.6268 19.7697 14.6936 19.7508 14.7691 19.7508H15.623ZM15.7667 21.4324L15.6883 22.1207H14.1069L14.1897 21.4324H15.7667Z" fill="white"/>
<path d="M17.861 19.7508L17.4384 22.7567H16.4974L16.92 19.7508H17.861Z" fill="#00FF88"/>
</svg>
