<svg width="542" height="396" viewBox="0 0 542 396" fill="none" xmlns="http://www.w3.org/2000/svg">
<path d="M460.896 0.903263C459.553 1.61665 458.21 2.33003 456.827 3.06503C439.874 12.21 423.726 22.4691 407.583 32.9647C404.066 35.249 400.54 37.5201 397.009 39.7838C387.982 45.5796 379.037 51.4007 370.408 57.7847C367.711 59.4764 365.53 60.0747 362.452 60.7675C353.515 95.9358 344.8 131.112 337.132 166.58C335.001 176.43 332.835 186.273 330.66 196.113C329.956 199.308 329.259 202.504 328.562 205.701C328.137 207.628 327.712 209.556 327.287 211.483C326.916 213.178 326.545 214.872 326.163 216.618C325.204 220.406 325.204 220.406 323.873 221.736C321.006 222.136 318.128 222.454 315.247 222.739C314.379 222.825 313.511 222.912 312.616 223.001C310.773 223.184 308.93 223.364 307.087 223.541C304.281 223.812 301.475 224.092 298.67 224.373C283.703 225.847 283.703 225.847 277.312 225.727C280.134 216.993 283.265 208.409 286.557 199.843C287.057 198.535 287.558 197.227 288.074 195.88C289.131 193.119 290.19 190.359 291.25 187.599C292.836 183.47 294.416 179.339 295.996 175.209C302.479 158.286 309.109 141.428 315.891 124.623C315.324 125.196 314.756 125.769 314.171 126.36C312.605 127.941 311.039 129.522 309.473 131.102C307.844 132.747 306.217 134.394 304.591 136.042C300.635 140.017 296.629 143.847 292.361 147.488C284.503 154.27 277.302 161.741 269.995 169.105C268.506 170.601 267.016 172.097 265.526 173.592C261.913 177.22 258.304 180.852 254.697 184.487C250.356 182.691 248.586 181.23 246.578 176.994C246.098 176.003 245.618 175.011 245.124 173.99C244.623 172.915 244.123 171.839 243.607 170.732C243.073 169.619 242.538 168.505 241.987 167.359C240.277 163.791 238.59 160.213 236.904 156.633C227.176 131.347 227.176 131.347 210.796 111.32C207.072 109.999 207.072 109.999 203.147 109.075C201.837 108.74 200.527 108.406 199.177 108.061C198.182 107.82 197.188 107.578 196.163 107.329C196.163 103.817 196.163 100.305 196.163 96.6861C205.515 91.4256 215.43 88.53 225.647 85.4693C229.58 84.2524 233.439 82.8326 237.283 81.3614C241.322 80.4328 245.25 80.6282 249.376 80.7223C250.02 82.0273 250.665 83.3323 251.329 84.6768C252.229 86.4908 253.13 88.3043 254.032 90.1176C254.504 91.0688 254.977 92.02 255.463 93.0001C259.275 100.627 263.261 108.148 267.415 115.594C269.468 119.349 270.661 121.6 270.661 125.953C277.89 120.257 285.02 114.459 292.029 108.493C302.538 99.5504 313.205 90.8028 323.873 82.0526C325.282 80.8955 326.69 79.7385 328.098 78.5813C334.94 72.9682 341.826 67.4162 348.76 61.9159C351.597 59.6102 354.324 57.2192 357.048 54.7811C361.122 51.4553 361.122 51.4553 365.113 51.4553C367.089 44.8702 367.089 44.8702 369.104 38.1521C345.283 53.6337 322.812 71.0475 300.51 88.621C281.817 103.338 281.817 103.338 278.642 103.338C278.063 102.132 277.483 100.927 276.886 99.6845C272.674 91.0348 268.407 82.7993 262.767 74.9645C261.348 72.7404 261.348 72.7404 261.348 70.0797C262.506 69.6852 263.663 69.2907 264.855 68.8842C294.333 58.8288 294.333 58.8288 323.608 48.2023C330.366 45.6788 337.179 43.3095 344.007 40.9826C350.775 38.638 357.274 35.8164 363.783 32.8309C358.49 31.5543 353.196 30.28 347.902 29.0062C345.673 28.4686 345.673 28.4686 343.399 27.9201C335.132 25.9322 326.859 24.0029 318.552 22.1883C318.552 21.7493 318.552 21.3103 318.552 20.858C332.148 18.7834 345.724 16.8965 359.414 15.5647C389.299 12.641 419.265 7.90664 448.489 0.942562C453.168 -0.13578 456.312 -0.465703 460.896 0.903263Z" fill="#F2F2F2"/>
<path d="M326.866 34.0781C328.053 34.0901 329.24 34.1021 330.462 34.1144C331.361 34.1299 332.26 34.1453 333.185 34.1612C329.849 37.4977 326.995 38.267 322.532 39.8151C321.713 40.1007 320.894 40.3863 320.051 40.6806C317.337 41.6222 314.62 42.5497 311.9 43.4734C310.971 43.7896 310.042 44.1058 309.085 44.4315C303.131 46.452 297.169 48.4471 291.203 50.4303C288.132 51.4515 285.063 52.4769 281.994 53.5028C270.456 57.3501 258.889 61.074 247.263 64.6464C243.206 65.9355 239.223 67.3321 235.241 68.8326C228.564 71.3179 221.793 73.2365 214.933 75.1464C208.376 77.0107 201.902 79.1292 195.414 81.2212C173.568 88.2124 151.588 94.3006 129.314 99.7625C128.362 99.998 127.41 100.234 126.429 100.476C116.454 102.936 106.657 105.211 96.389 105.998C96.828 106.876 97.267 107.754 97.7193 108.659C101.535 109.457 105.251 110.062 109.11 110.571C110.331 110.739 111.551 110.907 112.809 111.081C124.954 112.683 137.145 113.788 149.343 114.893C161.999 116.04 174.641 117.261 187.266 118.719C188.654 118.872 190.042 119.025 191.472 119.182C193.374 119.408 193.374 119.408 195.316 119.639C196.417 119.767 197.519 119.895 198.654 120.027C201.484 120.632 201.484 120.632 205.475 123.292C204.126 131.683 202.335 139.944 200.486 148.236C200.167 149.738 199.848 151.24 199.52 152.788C197.07 163.699 194.238 174.658 185.936 182.575C180.979 185.656 178.125 186.954 172.217 185.817C165.911 179.226 157.584 165.826 157.584 156.55C151.469 155.867 145.354 155.185 139.24 154.504C137.06 154.261 134.881 154.018 132.702 153.774C121.321 152.501 109.939 151.24 98.5455 150.081C96.0266 149.822 96.0266 149.822 93.4568 149.557C90.3318 149.238 87.2061 148.926 84.0797 148.621C65.8668 146.752 65.8668 146.752 59.8884 142C53.2019 128.894 60.199 112.175 63.6277 98.8193C64.7361 94.2144 65.6006 89.5758 66.4273 84.913C68.2141 77.556 73.0876 72.9545 79.0949 68.7494C91.2214 61.7737 108.715 62.3722 122.361 60.8429C123.781 60.6791 125.201 60.5154 126.664 60.3466C127.942 60.2033 129.22 60.06 130.536 59.9124C133.66 59.596 133.66 59.596 136.298 58.1069C139.665 57.5718 143.02 57.0958 146.401 56.6623C147.426 56.5272 148.451 56.3922 149.507 56.2531C152.864 55.8128 156.221 55.3799 159.579 54.9474C161.889 54.6465 164.199 54.3454 166.509 54.0442C181.014 52.162 195.526 50.3747 210.066 48.7798C220.099 47.6702 230.075 46.2592 240.063 44.8038C247.877 43.681 255.693 42.5757 263.51 41.478C264.556 41.331 265.603 41.184 266.681 41.0325C280.119 39.1523 293.543 37.3887 307.066 36.2165C312.301 35.7696 312.301 35.7696 317.45 34.7692C320.635 33.9731 323.59 34.035 326.866 34.0781Z" fill="#00FF88"/>
<path d="M218.778 169.853C215.951 184.611 211.936 198.921 207.709 213.327C206.501 217.455 205.321 221.59 204.145 225.727C190.557 228.231 176.978 230.167 163.237 231.63C150.573 232.981 137.945 234.491 125.323 236.203C121.987 236.655 118.651 237.107 115.315 237.559C114.454 237.676 113.593 237.793 112.706 237.913C93.6073 240.491 74.4837 242.884 55.366 245.315C52.6802 245.657 49.9945 246 47.3089 246.343C42.9385 246.902 38.5677 247.456 34.1967 248.009C32.9965 248.163 31.7963 248.317 30.5598 248.475C22.3637 249.505 14.1577 250.299 5.92749 251.003C5.92749 250.125 5.92749 249.247 5.92749 248.342C29.6015 240.364 53.2671 232.423 77.1822 225.193C85.9601 222.528 94.5763 219.618 103.181 216.435C108.142 214.695 113.176 213.396 118.261 212.075C121.595 211.113 124.701 209.935 127.901 208.599C133.411 206.31 138.995 204.441 144.696 202.696C178.386 193.665 178.386 193.665 207.522 175.606C210.84 172.599 214.21 169.853 218.778 169.853Z" fill="#F2F2F2"/>
<path d="M62.2401 168.622C64.5223 168.737 66.8044 168.855 69.0864 168.975C71.4533 169.017 73.8204 169.05 76.1876 169.072C82.3824 169.158 88.5649 169.38 94.7549 169.631C101.085 169.863 107.417 169.966 113.751 170.08C126.15 170.321 138.54 170.706 150.932 171.184C151.829 172.869 152.713 174.561 153.593 176.256C154.087 177.197 154.58 178.139 155.089 179.109C156.253 181.826 156.253 181.826 156.253 185.817C146.471 189.85 136.578 193.443 126.571 196.876C125.071 197.393 123.572 197.91 122.027 198.443C111.187 202.172 100.323 205.824 89.4214 209.37C84.7341 210.909 80.2189 212.513 75.686 214.476C70.5533 216.652 65.4169 218.17 60.0548 219.657C53.7708 221.446 47.6257 223.266 41.5966 225.81C19.8414 234.946 19.8414 234.946 11.2488 232.378C13.8381 227.294 16.437 222.214 19.0436 217.138C19.9229 215.422 20.8 213.706 21.6744 211.988C23.8 207.814 25.9588 203.665 28.192 199.547C30.245 195.723 32.0711 191.868 33.8026 187.89C40.5224 173.433 46.1233 168.32 62.2401 168.622Z" fill="#F2F2F2"/>
<path d="M460.896 0.903264C459.553 1.61665 458.21 2.33003 456.827 3.06503C439.874 12.21 423.726 22.4691 407.583 32.9647C404.066 35.249 400.54 37.5201 397.009 39.7838C387.93 45.6138 378.942 51.47 370.278 57.9146C367.774 59.4372 367.774 59.4372 363.783 59.4372C362.466 55.4862 362.466 55.4862 361.122 51.4553C362.439 51.4553 363.756 51.4553 365.113 51.4553C366.43 47.0653 367.747 42.6752 369.104 38.1521C345.283 53.6337 322.812 71.0475 300.51 88.621C281.817 103.338 281.817 103.338 278.643 103.338C278.063 102.132 277.483 100.927 276.886 99.6845C272.674 91.0348 268.408 82.7993 262.767 74.9645C261.348 72.7404 261.348 72.7404 261.348 70.0797C262.506 69.6852 263.663 69.2907 264.855 68.8842C294.333 58.8288 294.333 58.8288 323.608 48.2023C330.366 45.6788 337.179 43.3095 344.007 40.9826C350.775 38.638 357.274 35.8164 363.783 32.8309C358.49 31.5543 353.196 30.28 347.902 29.0062C345.673 28.4686 345.673 28.4686 343.399 27.9201C335.132 25.9322 326.859 24.0029 318.552 22.1883C318.552 21.7493 318.552 21.3103 318.552 20.858C332.148 18.7834 345.724 16.8965 359.414 15.5647C389.299 12.641 419.265 7.90664 448.489 0.942562C453.168 -0.13578 456.312 -0.465703 460.896 0.903264Z" fill="#00FF88"/>
<path d="M316.687 348C324.869 348.018 332.939 348.209 341.099 348.829C354.558 349.745 368.025 349.772 381.511 349.853C386.189 349.882 390.866 349.918 395.544 349.955C407.148 350.047 418.753 350.127 430.357 350.207C440.204 350.275 450.05 350.348 459.897 350.427C464.48 350.462 469.063 350.49 473.646 350.518C476.481 350.54 479.316 350.562 482.151 350.585C483.404 350.591 484.656 350.596 485.947 350.602C494.938 350.685 503.828 351.319 512.778 352.168C512.778 352.607 512.778 353.046 512.778 353.498C511.492 353.517 511.492 353.517 510.179 353.536C489.305 353.84 468.432 354.151 447.558 354.47C437.464 354.624 427.37 354.775 417.275 354.921C408.477 355.049 399.678 355.181 390.88 355.318C386.221 355.39 381.563 355.46 376.904 355.525C371.703 355.598 366.502 355.68 361.301 355.763C359.757 355.783 358.214 355.804 356.623 355.824C355.204 355.848 353.784 355.873 352.322 355.898C351.092 355.916 349.862 355.934 348.595 355.953C345.121 356.161 341.904 356.757 338.507 357.489C334.213 357.762 329.921 357.735 325.619 357.738C323.89 357.763 323.89 357.763 322.125 357.788C321.023 357.79 319.921 357.793 318.786 357.795C317.282 357.804 317.282 357.804 315.748 357.812C313.231 357.489 313.231 357.489 310.57 354.828C311.301 350.004 311.583 348.261 316.687 348Z" fill="#00FF88"/>
<path d="M192.837 347.057C194.579 347.038 196.322 347.019 198.117 347C202.377 347.278 204.613 347.693 208.136 349.967C208.136 352.601 208.136 355.235 208.136 357.949C203.591 357.989 199.045 358.012 194.5 358.032C192.607 358.049 192.607 358.049 190.675 358.066C184.458 358.087 178.347 357.951 172.16 357.32C159.657 356.241 147.114 356.154 134.573 355.907C131.852 355.85 129.131 355.792 126.41 355.734C119.298 355.583 112.186 355.438 105.074 355.294C97.7965 355.146 90.5192 354.992 83.2419 354.839C69 354.54 54.758 354.247 40.5159 353.958C40.5159 353.519 40.5159 353.08 40.5159 352.628C53.6633 351.636 66.7336 351.067 79.9213 350.923C81.7252 350.899 83.529 350.874 85.3329 350.849C90.986 350.771 96.6392 350.701 102.292 350.632C133.127 350.269 133.127 350.269 163.95 349.344C165.917 349.269 165.917 349.269 167.924 349.193C169.722 349.115 169.722 349.115 171.558 349.034C173.109 348.968 173.109 348.968 174.691 348.9C180.894 348.327 186.476 347.088 192.837 347.057Z" fill="#00FF88"/>
<path d="M213.457 132.605C216.871 133.326 218.539 133.72 221.19 136.097C223.44 140.597 222.513 143.874 221.439 148.568C221.204 149.892 220.969 151.216 220.727 152.58C218.471 163.765 218.471 163.765 213.457 167.525C209.466 168.523 209.466 168.523 205.475 168.523C206.223 159.931 207.786 152.093 210.214 143.829C210.526 142.741 210.837 141.653 211.158 140.532C211.916 137.887 212.685 135.245 213.457 132.605Z" fill="#F2F2F2"/>
<path d="M25.704 259.312C28.488 259.312 31.44 259.504 34.56 259.888C37.728 260.272 40.704 260.944 43.488 261.904L42.12 271.84C40.68 271.792 38.976 271.768 37.008 271.768C35.088 271.768 33.072 271.768 30.96 271.768C28.848 271.72 26.76 271.696 24.696 271.696C23.88 271.696 23.184 271.744 22.608 271.84C22.032 271.888 21.552 271.984 21.168 272.128C20.784 272.272 20.472 272.488 20.232 272.776C20.04 273.016 19.896 273.328 19.8 273.712C19.752 274.048 19.776 274.384 19.872 274.72C20.016 275.056 20.328 275.392 20.808 275.728C21.288 276.064 22.008 276.472 22.968 276.952L31.32 280.912C34.056 282.208 36.12 283.576 37.512 285.016C38.904 286.456 39.792 288.112 40.176 289.984C40.608 291.808 40.68 293.944 40.392 296.392C39.96 300.184 39.024 303.16 37.584 305.32C36.144 307.432 33.984 308.92 31.104 309.784C28.272 310.6 24.456 311.008 19.656 311.008C17.592 311.008 14.784 310.816 11.232 310.432C7.728 310.096 4.08 309.448 0.288 308.488L1.728 297.616C4.512 297.664 7.08 297.736 9.432 297.832C11.832 297.88 13.848 297.928 15.48 297.976C17.112 297.976 18.24 297.976 18.864 297.976C20.352 297.976 21.504 297.904 22.32 297.76C23.184 297.616 23.808 297.4 24.192 297.112C24.624 296.776 24.888 296.368 24.984 295.888C25.08 295.456 25.056 295.096 24.912 294.808C24.816 294.52 24.576 294.256 24.192 294.016C23.808 293.728 23.28 293.416 22.608 293.08L13.536 288.616C10.752 287.224 8.664 285.76 7.272 284.224C5.88 282.64 4.992 280.936 4.608 279.112C4.224 277.288 4.152 275.368 4.392 273.352C4.728 270.616 5.376 268.336 6.336 266.512C7.344 264.688 8.712 263.272 10.44 262.264C12.168 261.208 14.304 260.464 16.848 260.032C19.392 259.552 22.344 259.312 25.704 259.312ZM66.7845 260.32L59.8005 310H44.1765L51.1605 260.32H66.7845ZM76.9365 278.104L75.3525 289.192H62.1765L63.6885 278.104H76.9365ZM94.2885 260.32L87.3045 310H71.6805L78.6645 260.32H94.2885ZM129.286 260.32C130.534 260.32 131.638 260.728 132.598 261.544C133.558 262.36 134.11 263.392 134.254 264.64L140.662 310H125.038L122.446 277.384C122.35 276.424 122.302 275.488 122.302 274.576C122.302 273.664 122.326 272.752 122.374 271.84H120.358C120.214 272.608 120.022 273.472 119.782 274.432C119.59 275.344 119.302 276.28 118.918 277.24L106.75 310H90.5501L109.702 264.064C110.182 262.816 110.902 261.88 111.862 261.256C112.822 260.632 113.926 260.32 115.174 260.32H129.286ZM131.662 288.112L130.366 299.488H104.23L105.598 288.112H131.662ZM170.739 259.6C175.347 259.6 179.187 260.08 182.259 261.04C185.331 262 187.539 263.632 188.883 265.936C190.227 268.192 190.635 271.312 190.107 275.296C189.867 277.168 189.363 278.92 188.595 280.552C187.875 282.136 186.747 283.456 185.211 284.512C183.675 285.568 181.563 286.24 178.875 286.528L178.803 287.032C179.619 287.128 180.483 287.44 181.395 287.968C182.355 288.448 183.195 289.24 183.915 290.344C184.683 291.448 185.163 293.008 185.355 295.024L187.227 310H171.099L169.803 294.952C169.755 293.56 169.539 292.696 169.155 292.36C168.771 292.024 168.027 291.856 166.923 291.856C163.227 291.808 160.227 291.784 157.923 291.784C155.619 291.784 153.675 291.76 152.091 291.712C150.555 291.664 149.043 291.592 147.555 291.496L148.707 280.84H168.435C169.875 280.84 170.979 280.696 171.747 280.408C172.563 280.12 173.163 279.568 173.547 278.752C173.979 277.888 174.315 276.688 174.555 275.152C174.747 274 174.747 273.088 174.555 272.416C174.363 271.744 173.955 271.288 173.331 271.048C172.707 270.76 171.795 270.616 170.595 270.616C165.459 270.616 161.163 270.664 157.707 270.76C154.299 270.808 151.995 270.904 150.795 271.048L150.651 260.32C152.811 260.08 154.827 259.912 156.699 259.816C158.619 259.72 160.683 259.672 162.891 259.672C165.099 259.624 167.715 259.6 170.739 259.6ZM165.915 260.32L158.931 310H143.667L150.651 260.32H165.915ZM218.831 259.6C223.919 259.6 227.927 260.128 230.855 261.184C233.783 262.192 235.775 263.968 236.831 266.512C237.887 269.056 238.103 272.584 237.479 277.096C236.903 281.368 235.895 284.68 234.455 287.032C233.063 289.384 231.023 291.016 228.335 291.928C225.695 292.84 222.191 293.296 217.823 293.296C215.375 293.296 212.951 293.176 210.551 292.936C208.199 292.648 205.991 292.288 203.927 291.856C201.911 291.424 200.183 290.968 198.743 290.488C197.303 290.008 196.319 289.576 195.791 289.192L196.223 282.28C199.487 282.28 202.871 282.28 206.375 282.28C209.879 282.28 213.239 282.28 216.455 282.28C217.703 282.28 218.687 282.16 219.407 281.92C220.127 281.68 220.679 281.104 221.063 280.192C221.495 279.28 221.831 277.864 222.071 275.944C222.263 274.6 222.287 273.544 222.143 272.776C222.047 272.008 221.711 271.456 221.135 271.12C220.559 270.784 219.671 270.616 218.471 270.616C213.527 270.616 209.327 270.664 205.871 270.76C202.463 270.808 200.159 270.904 198.959 271.048L198.815 260.32C200.975 260.08 202.991 259.912 204.863 259.816C206.735 259.72 208.751 259.672 210.911 259.672C213.119 259.624 215.759 259.6 218.831 259.6ZM214.367 260.32L207.383 310H191.831L198.815 260.32H214.367Z" fill="white"/>
<path d="M322.704 260.32C324.48 260.32 325.824 260.824 326.736 261.832C327.648 262.84 328.008 264.232 327.816 266.008L323.352 310H309.312L313.2 271.984H312.192L303.84 297.616C303.36 299.2 302.616 300.352 301.608 301.072C300.6 301.744 299.256 302.08 297.576 302.08H289.656C288.024 302.08 286.704 301.648 285.696 300.784C284.736 299.872 284.208 298.624 284.112 297.04L282.744 271.984H281.592L275.04 310H261L268.992 265.432C269.328 263.656 269.904 262.36 270.72 261.544C271.584 260.728 272.904 260.32 274.68 260.32H287.928C289.56 260.32 290.856 260.776 291.816 261.688C292.776 262.552 293.28 263.8 293.328 265.432L294.192 285.16C294.288 286.36 294.312 287.584 294.264 288.832C294.216 290.032 294.144 291.28 294.048 292.576H294.768C295.056 291.184 295.344 289.936 295.632 288.832C295.92 287.68 296.232 286.504 296.568 285.304L302.616 264.856C303.048 263.224 303.768 262.072 304.776 261.4C305.832 260.68 307.176 260.32 308.808 260.32H322.704ZM364.411 260.32C365.659 260.32 366.763 260.728 367.723 261.544C368.683 262.36 369.235 263.392 369.379 264.64L375.787 310H360.163L357.571 277.384C357.475 276.424 357.427 275.488 357.427 274.576C357.427 273.664 357.451 272.752 357.499 271.84H355.483C355.339 272.608 355.147 273.472 354.907 274.432C354.715 275.344 354.427 276.28 354.043 277.24L341.875 310H325.675L344.827 264.064C345.307 262.816 346.027 261.88 346.987 261.256C347.947 260.632 349.051 260.32 350.299 260.32H364.411ZM366.787 288.112L365.491 299.488H339.355L340.723 288.112H366.787ZM407.837 260.32L400.853 310H385.229L392.213 260.32H407.837ZM421.589 260.32L419.933 271.984H376.877L378.533 260.32H421.589ZM446.153 259.6C450.761 259.6 454.601 260.08 457.673 261.04C460.745 262 462.953 263.632 464.297 265.936C465.641 268.192 466.049 271.312 465.521 275.296C465.281 277.168 464.777 278.92 464.009 280.552C463.289 282.136 462.161 283.456 460.625 284.512C459.089 285.568 456.977 286.24 454.289 286.528L454.217 287.032C455.033 287.128 455.897 287.44 456.809 287.968C457.769 288.448 458.609 289.24 459.329 290.344C460.097 291.448 460.577 293.008 460.769 295.024L462.641 310H446.513L445.217 294.952C445.169 293.56 444.953 292.696 444.569 292.36C444.185 292.024 443.441 291.856 442.337 291.856C438.641 291.808 435.641 291.784 433.337 291.784C431.033 291.784 429.089 291.76 427.505 291.712C425.969 291.664 424.457 291.592 422.969 291.496L424.121 280.84H443.849C445.289 280.84 446.393 280.696 447.161 280.408C447.977 280.12 448.577 279.568 448.961 278.752C449.393 277.888 449.729 276.688 449.969 275.152C450.161 274 450.161 273.088 449.969 272.416C449.777 271.744 449.369 271.288 448.745 271.048C448.121 270.76 447.209 270.616 446.009 270.616C440.873 270.616 436.577 270.664 433.121 270.76C429.713 270.808 427.409 270.904 426.209 271.048L426.065 260.32C428.225 260.08 430.241 259.912 432.113 259.816C434.033 259.72 436.097 259.672 438.305 259.672C440.513 259.624 443.129 259.6 446.153 259.6ZM441.329 260.32L434.345 310H419.081L426.065 260.32H441.329ZM489.853 260.32L482.869 310H467.317L474.301 260.32H489.853ZM509.6 260.32L516.44 286.096L502.904 310H486.344L502.04 284.656L494.552 260.32H509.6ZM521.912 280.192L520.688 288.832H505.784L507.008 280.192H521.912ZM541.496 260.32L526.808 284.656L535.232 310H519.896L512.768 283.072L525.584 260.32H541.496Z" fill="#00FF88"/>
<path d="M258.208 332.32C259.456 332.32 260.56 332.728 261.52 333.544C262.48 334.36 263.032 335.392 263.176 336.64L269.584 382H253.96L251.368 349.384C251.272 348.424 251.224 347.488 251.224 346.576C251.224 345.664 251.248 344.752 251.296 343.84H249.28C249.136 344.608 248.944 345.472 248.704 346.432C248.512 347.344 248.224 348.28 247.84 349.24L235.672 382H219.472L238.624 336.064C239.104 334.816 239.824 333.88 240.784 333.256C241.744 332.632 242.848 332.32 244.096 332.32H258.208ZM260.584 360.112L259.288 371.488H233.152L234.52 360.112H260.584Z" fill="white"/>
<path d="M295.197 332.32L288.213 382H272.661L279.645 332.32H295.197Z" fill="#00FF88"/>
</svg>
