<svg width="1440" height="794" viewBox="0 0 1440 794" fill="none" xmlns="http://www.w3.org/2000/svg">
<path d="M1439.03 2.85696C1434.78 5.11333 1430.54 7.36971 1426.16 9.69446C1372.54 38.6193 1321.47 71.0681 1270.41 104.265C1259.28 111.49 1248.13 118.673 1236.96 125.833C1208.41 144.165 1180.12 162.577 1152.83 182.769C1144.3 188.12 1137.4 190.012 1127.66 192.203C1099.39 303.438 1071.83 414.699 1047.57 526.881C1040.83 558.036 1033.98 589.167 1027.11 620.292C1024.88 630.397 1022.67 640.506 1020.47 650.616C1019.13 656.712 1017.78 662.809 1016.44 668.905C1015.26 674.265 1014.09 679.625 1012.88 685.147C1009.85 697.126 1009.85 697.126 1005.64 701.334C996.571 702.599 987.467 703.607 978.355 704.506C975.609 704.781 972.863 705.055 970.034 705.337C964.205 705.915 958.376 706.484 952.546 707.045C943.669 707.9 934.796 708.785 925.923 709.676C878.585 714.338 878.585 714.338 858.37 713.957C867.296 686.334 877.197 659.182 887.61 632.088C889.194 627.952 890.777 623.815 892.408 619.554C895.753 610.821 899.102 602.09 902.455 593.361C907.47 580.302 912.469 567.237 917.467 554.172C937.972 500.646 958.94 447.325 980.393 394.172C978.597 395.986 976.801 397.799 974.951 399.667C969.998 404.667 965.045 409.668 960.091 414.667C954.939 419.87 949.794 425.079 944.652 430.292C932.137 442.864 919.467 454.978 905.97 466.492C881.113 487.945 858.339 511.574 835.228 534.867C830.517 539.599 825.805 544.33 821.092 549.06C809.663 560.535 798.248 572.023 786.839 583.519C773.109 577.839 767.511 573.218 761.16 559.819C759.642 556.683 758.124 553.548 756.56 550.317C754.977 546.917 753.395 543.516 751.764 540.012C750.073 536.491 748.383 532.97 746.64 529.343C741.232 518.058 735.894 506.741 730.561 495.42C699.793 415.44 699.793 415.44 647.985 352.096C636.205 347.918 636.205 347.918 623.791 344.995C619.647 343.937 615.503 342.88 611.234 341.79C608.088 341.025 604.942 340.26 601.701 339.472C601.701 328.364 601.701 317.256 601.701 305.811C631.28 289.173 662.64 280.014 694.956 270.333C707.396 266.484 719.602 261.993 731.761 257.34C744.537 254.403 756.959 255.021 770.008 255.319C772.048 259.446 774.087 263.574 776.188 267.827C779.035 273.564 781.884 279.3 784.735 285.035C786.23 288.044 787.724 291.053 789.264 294.152C801.319 318.276 813.926 342.065 827.067 365.615C833.561 377.491 837.332 384.61 837.332 398.38C860.199 380.365 882.75 362.024 904.918 343.154C938.156 314.871 971.895 287.203 1005.64 259.526C1010.09 255.867 1014.55 252.207 1019 248.547C1040.64 230.793 1062.42 213.233 1084.35 195.836C1093.33 188.543 1101.95 180.98 1110.57 173.269C1123.45 162.749 1123.45 162.749 1136.08 162.749C1142.33 141.921 1142.33 141.921 1148.7 120.672C1073.36 169.64 1002.28 224.718 931.742 280.302C872.619 326.849 872.619 326.849 862.578 326.849C860.744 323.036 858.911 319.223 857.022 315.295C843.7 287.936 830.205 261.888 812.365 237.107C807.878 230.072 807.878 230.072 807.878 221.657C811.538 220.409 815.198 219.161 818.969 217.876C912.205 186.071 912.205 186.071 1004.8 152.46C1026.18 144.479 1047.72 136.985 1069.32 129.625C1090.73 122.209 1111.28 113.285 1131.87 103.842C1115.13 99.8038 1098.38 95.7735 1081.64 91.7445C1074.59 90.0441 1074.59 90.0441 1067.4 88.3093C1041.25 82.0216 1015.08 75.9196 988.808 70.1801C988.808 68.7915 988.808 67.403 988.808 65.9724C1031.81 59.4104 1074.75 53.4425 1118.05 49.2299C1212.58 39.9826 1307.35 25.0081 1399.79 2.98126C1414.59 -0.429461 1424.53 -1.47298 1439.03 2.85696Z" fill="#2A2F36" fill-opacity="0.08"/>
<path d="M1015.11 107.787C1018.86 107.825 1022.61 107.863 1026.48 107.902C1029.32 107.951 1032.16 108 1035.09 108.05C1024.54 118.603 1015.51 121.036 1001.4 125.933C998.808 126.836 996.218 127.739 993.549 128.67C984.967 131.648 976.371 134.582 967.77 137.504C964.831 138.504 961.892 139.504 958.864 140.534C940.033 146.925 921.177 153.235 902.306 159.508C892.594 162.738 882.886 165.981 873.179 169.226C836.685 181.395 800.1 193.173 763.327 204.472C750.496 208.55 737.898 212.967 725.302 217.713C704.183 225.574 682.768 231.642 661.069 237.683C640.329 243.58 619.852 250.28 599.334 256.897C530.236 279.01 460.715 298.266 390.264 315.542C387.253 316.287 384.242 317.032 381.139 317.8C349.589 325.58 318.599 332.776 286.124 335.265C287.512 338.042 288.901 340.819 290.331 343.681C302.402 346.206 314.154 348.119 326.36 349.729C330.22 350.261 334.081 350.792 338.058 351.34C376.472 356.41 415.032 359.904 453.613 363.399C493.644 367.026 533.63 370.888 573.562 375.501C577.951 375.984 582.34 376.467 586.863 376.964C592.881 377.68 592.881 377.68 599.022 378.411C602.505 378.815 605.989 379.219 609.579 379.636C618.531 381.55 618.531 381.55 631.155 389.965C626.888 416.503 621.224 442.632 615.376 468.86C614.367 473.611 613.358 478.362 612.319 483.258C604.57 517.767 595.614 552.432 569.354 577.471C553.676 587.216 544.65 591.321 525.962 587.727C506.017 566.878 479.678 524.496 479.678 495.158C460.338 492.997 440.997 490.84 421.657 488.686C414.764 487.917 407.872 487.148 400.98 486.377C364.981 482.351 328.982 478.361 292.945 474.695C284.977 473.875 284.977 473.875 276.849 473.04C266.965 472.03 257.079 471.042 247.19 470.079C189.584 464.167 189.584 464.167 170.675 449.136C149.526 407.684 171.657 354.802 182.502 312.559C186.008 297.994 188.742 283.322 191.357 268.574C197.009 245.304 212.423 230.75 231.424 217.45C269.779 195.386 325.11 197.279 368.272 192.442C372.763 191.924 377.254 191.406 381.881 190.872C385.923 190.419 389.965 189.966 394.129 189.499C404.01 188.498 404.01 188.498 412.354 183.788C423.004 182.096 433.615 180.59 444.307 179.219C447.549 178.792 450.792 178.365 454.132 177.925C464.749 176.532 475.369 175.163 485.989 173.795C493.295 172.843 500.601 171.891 507.907 170.938C553.785 164.985 599.688 159.332 645.676 154.287C677.409 150.778 708.963 146.315 740.555 141.711C765.268 138.16 789.99 134.664 814.715 131.192C818.024 130.727 821.334 130.262 824.743 129.783C867.247 123.836 909.708 118.258 952.478 114.55C969.037 113.137 969.037 113.137 985.324 109.973C995.396 107.455 1004.74 107.651 1015.11 107.787Z" fill="#00FF88" fill-opacity="0.02"/>
<path d="M673.231 537.234C664.288 583.912 651.591 629.173 638.22 674.738C634.399 687.794 630.667 700.873 626.946 713.958C583.968 721.879 541.019 728.001 497.56 732.629C457.502 736.902 417.561 741.679 377.64 747.093C367.088 748.524 356.536 749.954 345.984 751.383C343.261 751.752 340.538 752.121 337.732 752.501C277.325 760.655 216.838 768.225 156.37 775.914C147.875 776.996 139.381 778.081 130.886 779.166C117.063 780.932 103.239 782.687 89.4135 784.436C85.6174 784.922 81.8213 785.408 77.9101 785.908C51.9867 789.166 26.0317 791.679 0 793.904C0 791.127 0 788.35 0 785.488C74.879 760.255 149.732 735.139 225.374 712.27C253.137 703.841 280.39 694.637 307.605 684.569C323.296 679.064 339.219 674.958 355.304 670.779C365.847 667.737 375.672 664.01 385.793 659.783C403.22 652.545 420.884 646.633 438.915 641.112C545.474 612.55 545.474 612.55 637.63 555.429C648.123 545.918 658.781 537.234 673.231 537.234Z" fill="#2A2F36" fill-opacity="0.08"/>
<path d="M178.113 533.337C185.331 533.703 192.549 534.076 199.767 534.456C207.253 534.59 214.741 534.692 222.228 534.763C241.821 535.035 261.376 535.735 280.955 536.53C300.977 537.265 321.005 537.589 341.037 537.949C380.255 538.713 419.444 539.932 458.639 541.442C461.475 546.772 464.273 552.124 467.054 557.483C468.616 560.461 470.179 563.439 471.788 566.507C475.47 575.103 475.47 575.103 475.47 587.726C444.529 600.482 413.238 611.847 381.586 622.703C376.843 624.339 372.101 625.975 367.215 627.66C332.929 639.455 298.566 651.007 264.085 662.221C249.26 667.089 234.979 672.163 220.641 678.373C204.407 685.254 188.161 690.056 171.201 694.76C151.325 700.418 131.889 706.174 112.819 714.22C44.0088 743.118 44.0088 743.118 16.8311 734.996C25.021 718.913 33.2411 702.846 41.4855 686.791C44.2668 681.365 47.0408 675.936 49.8064 670.503C56.5295 657.299 63.3578 644.177 70.4211 631.152C76.9147 619.058 82.6906 606.866 88.1672 594.282C109.421 548.556 127.137 532.383 178.113 533.337Z" fill="#2A2F36" fill-opacity="0.08"/>
<path d="M1439.03 2.85696C1434.78 5.11333 1430.54 7.36971 1426.16 9.69446C1372.54 38.6193 1321.47 71.0681 1270.41 104.265C1259.28 111.49 1248.13 118.673 1236.96 125.833C1208.25 144.273 1179.82 162.796 1152.42 183.18C1144.49 187.996 1144.49 187.996 1131.87 187.996C1127.7 175.499 1127.7 175.499 1123.45 162.749C1127.62 162.749 1131.79 162.749 1136.08 162.749C1140.24 148.864 1144.41 134.979 1148.7 120.672C1073.36 169.64 1002.28 224.718 931.742 280.302C872.62 326.849 872.62 326.849 862.578 326.849C860.745 323.036 858.911 319.223 857.022 315.295C843.701 287.936 830.205 261.888 812.365 237.107C807.878 230.072 807.878 230.072 807.878 221.657C811.538 220.409 815.198 219.161 818.969 217.876C912.206 186.071 912.206 186.071 1004.8 152.46C1026.18 144.479 1047.72 136.985 1069.32 129.625C1090.73 122.209 1111.29 113.285 1131.87 103.842C1115.13 99.8038 1098.38 95.7735 1081.64 91.7445C1074.59 90.0441 1074.59 90.0441 1067.4 88.3093C1041.25 82.0216 1015.08 75.9196 988.809 70.1801C988.809 68.7915 988.809 67.403 988.809 65.9724C1031.81 59.4104 1074.75 53.4425 1118.05 49.2299C1212.58 39.9826 1307.36 25.0081 1399.79 2.98126C1414.59 -0.429461 1424.53 -1.47298 1439.03 2.85696Z" fill="#00FF88" fill-opacity="0.02"/>
<path d="M656.4 419.418C667.199 421.698 672.474 422.947 680.858 430.463C687.975 444.697 685.042 455.063 681.647 469.91C680.904 474.098 680.16 478.285 679.395 482.599C672.26 517.975 672.26 517.975 656.4 529.87C643.777 533.026 643.777 533.026 631.154 533.026C633.521 505.85 638.464 481.058 646.144 454.92C647.129 451.479 648.113 448.037 649.127 444.492C651.525 436.126 653.959 427.771 656.4 419.418Z" fill="#2A2F36" fill-opacity="0.08"/>
</svg>
