<svg width="1278" height="590" viewBox="0 0 1278 590" fill="none" xmlns="http://www.w3.org/2000/svg">
<path d="M853.254 107.787C857.007 107.825 860.76 107.863 864.627 107.902C867.47 107.951 870.312 108 873.24 108.05C862.687 118.603 853.662 121.036 839.546 125.933C836.955 126.836 834.365 127.739 831.696 128.67C823.114 131.648 814.518 134.582 805.917 137.504C802.978 138.504 800.039 139.504 797.011 140.534C778.18 146.925 759.324 153.235 740.453 159.508C730.741 162.738 721.033 165.981 711.326 169.226C674.832 181.395 638.247 193.173 601.474 204.472C588.643 208.55 576.045 212.967 563.449 217.713C542.33 225.574 520.915 231.642 499.216 237.683C478.476 243.58 457.999 250.28 437.481 256.897C368.383 279.01 298.862 298.266 228.411 315.542C225.4 316.287 222.389 317.032 219.286 317.8C187.736 325.58 156.746 332.776 124.271 335.265C125.659 338.042 127.048 340.819 128.478 343.681C140.549 346.206 152.301 348.119 164.507 349.729C168.367 350.261 172.228 350.792 176.205 351.34C214.619 356.41 253.179 359.904 291.76 363.399C331.791 367.026 371.777 370.888 411.709 375.501C416.098 375.984 420.487 376.467 425.01 376.964C431.028 377.68 431.028 377.68 437.169 378.411C440.652 378.815 444.136 379.219 447.726 379.636C456.678 381.55 456.678 381.55 469.301 389.965C465.035 416.503 459.371 442.632 453.523 468.86C452.514 473.611 451.505 478.362 450.465 483.258C442.717 517.767 433.761 552.432 407.501 577.471C391.823 587.216 382.797 591.321 364.109 587.727C344.164 566.878 317.824 524.496 317.824 495.158C298.485 492.997 279.144 490.84 259.804 488.686C252.911 487.917 246.019 487.148 239.127 486.377C203.128 482.351 167.129 478.361 131.092 474.695C123.124 473.875 123.124 473.875 114.996 473.04C105.112 472.03 95.2258 471.042 85.3371 470.079C27.7313 464.167 27.7313 464.167 8.82195 449.136C-12.3271 407.684 9.80435 354.802 20.6489 312.559C24.1549 297.994 26.8892 283.322 29.504 268.574C35.1556 245.304 50.5701 230.75 69.5705 217.45C107.926 195.386 163.256 197.279 206.419 192.442C210.91 191.924 215.401 191.406 220.028 190.872C224.07 190.419 228.112 189.966 232.276 189.499C242.157 188.498 242.157 188.498 250.501 183.788C261.151 182.096 271.762 180.59 282.454 179.219C285.696 178.792 288.939 178.365 292.279 177.925C302.896 176.532 313.516 175.163 324.136 173.795C331.442 172.843 338.748 171.891 346.054 170.938C391.932 164.985 437.835 159.332 483.823 154.287C515.556 150.778 547.11 146.315 578.701 141.711C603.415 138.16 628.137 134.664 652.862 131.192C656.171 130.727 659.481 130.262 662.89 129.783C705.394 123.836 747.855 118.258 790.625 114.55C807.184 113.137 807.184 113.137 823.471 109.973C833.543 107.455 842.892 107.651 853.254 107.787Z" fill="#00FF88" fill-opacity="0.02"/>
<path d="M1277.18 2.85696C1272.93 5.11333 1268.68 7.36971 1264.31 9.69446C1210.69 38.6193 1159.61 71.0681 1108.55 104.265C1097.43 111.49 1086.28 118.673 1075.11 125.833C1046.39 144.273 1017.96 162.796 990.563 183.18C982.64 187.996 982.64 187.996 970.017 187.996C965.852 175.499 965.852 175.499 961.602 162.749C965.768 162.749 969.933 162.749 974.225 162.749C978.391 148.864 982.556 134.979 986.848 120.672C911.503 169.64 840.43 224.718 769.889 280.302C710.767 326.849 710.767 326.849 700.725 326.849C698.892 323.036 697.058 319.223 695.169 315.295C681.848 287.936 668.352 261.888 650.512 237.107C646.025 230.072 646.025 230.072 646.025 221.657C649.685 220.409 653.345 219.161 657.116 217.876C750.353 186.071 750.353 186.071 842.948 152.46C864.324 144.479 885.871 136.985 907.468 129.625C928.873 122.209 949.432 113.285 970.017 103.842C953.275 99.8038 936.532 95.7735 919.788 91.7445C912.738 90.0441 912.738 90.0441 905.546 88.3093C879.398 82.0216 853.229 75.9196 826.956 70.1801C826.956 68.7915 826.956 67.403 826.956 65.9724C869.957 59.4104 912.898 53.4425 956.2 49.2299C1050.72 39.9826 1145.5 25.0081 1237.94 2.98126C1252.74 -0.429461 1262.68 -1.47298 1277.18 2.85696Z" fill="#00FF88" fill-opacity="0.02"/>
</svg>
