<svg width="132" height="97" viewBox="0 0 132 97" fill="none" xmlns="http://www.w3.org/2000/svg">
<path d="M111.691 0.218892C111.365 0.391769 111.04 0.564647 110.705 0.742763C106.596 2.95891 102.683 5.44505 98.7711 7.98849C97.9187 8.54205 97.0644 9.09242 96.2087 9.64101C94.0212 11.0455 91.8535 12.4562 89.7624 14.0032C89.1087 14.4132 88.5802 14.5582 87.8344 14.7261C85.6685 23.2486 83.5567 31.7731 81.6982 40.3682C81.1819 42.7552 80.657 45.1404 80.1301 47.5251C79.9594 48.2993 79.7904 49.0738 79.6215 49.8484C79.5186 50.3155 79.4157 50.7826 79.3127 51.2497C79.2227 51.6604 79.1328 52.071 79.0401 52.4941C78.8077 53.4119 78.8077 53.4119 78.4853 53.7343C77.7905 53.8312 77.093 53.9084 76.3948 53.9773C76.1845 53.9984 75.9741 54.0194 75.7573 54.041C75.3107 54.0853 74.8641 54.1289 74.4174 54.1718C73.7373 54.2373 73.0575 54.3052 72.3777 54.3734C68.7507 54.7306 68.7507 54.7306 67.2019 54.7014C67.8858 52.5851 68.6444 50.5047 69.4422 48.4288C69.5635 48.1119 69.6849 47.795 69.8098 47.4685C70.0661 46.7994 70.3227 46.1305 70.5796 45.4617C70.9638 44.4611 71.3469 43.4602 71.7297 42.4591C73.3008 38.3582 74.9073 34.2728 76.551 30.2004C76.4134 30.3393 76.2758 30.4782 76.134 30.6214C75.7546 31.0045 75.3751 31.3876 74.9955 31.7707C74.6008 32.1693 74.2066 32.5684 73.8126 32.9678C72.8538 33.931 71.883 34.8591 70.8489 35.7414C68.9445 37.385 67.1995 39.1954 65.4288 40.9801C65.0679 41.3426 64.7069 41.7051 64.3458 42.0675C63.4701 42.9467 62.5955 43.8268 61.7214 44.7076C60.6695 44.2724 60.2405 43.9184 59.7539 42.8918C59.6376 42.6515 59.5213 42.4113 59.4015 42.1638C59.2803 41.9032 59.159 41.6427 59.0341 41.3742C58.9045 41.1045 58.775 40.8347 58.6415 40.5568C58.2271 39.6922 57.8182 38.8251 57.4096 37.9577C55.0522 31.8299 55.0522 31.8299 51.0828 26.9766C50.1802 26.6565 50.1802 26.6565 49.2291 26.4326C48.9116 26.3515 48.5941 26.2705 48.267 26.187C48.026 26.1284 47.785 26.0698 47.5366 26.0094C47.5366 25.1584 47.5366 24.3073 47.5366 23.4304C49.8029 22.1556 52.2056 21.4539 54.6816 20.7122C55.6347 20.4173 56.5699 20.0732 57.5015 19.7167C58.4803 19.4917 59.4321 19.539 60.4319 19.5618C60.5882 19.8781 60.7444 20.1943 60.9054 20.5201C61.1235 20.9597 61.3418 21.3992 61.5602 21.8386C61.6747 22.0691 61.7892 22.2997 61.9072 22.5372C62.8308 24.3854 63.7968 26.2081 64.8036 28.0125C65.3011 28.9223 65.59 29.4678 65.59 30.5228C67.3421 29.1425 69.0699 27.7373 70.7683 26.2915C73.3149 24.1245 75.8999 22.0047 78.4853 19.8842C78.8266 19.6038 79.1678 19.3234 79.5091 19.043C81.1672 17.6827 82.8359 16.3373 84.5161 15.0044C85.2037 14.4456 85.8647 13.8662 86.5247 13.2754C87.512 12.4694 87.512 12.4694 88.4791 12.4694C88.9579 10.8736 88.9579 10.8736 89.4463 9.24559C83.6736 12.9973 78.2281 17.2173 72.8235 21.476C68.2937 25.0423 68.2937 25.0423 67.5243 25.0423C67.3838 24.7502 67.2434 24.458 67.0987 24.157C66.078 22.0609 65.044 20.0651 63.6771 18.1665C63.3333 17.6275 63.3333 17.6275 63.3333 16.9828C63.6138 16.8871 63.8942 16.7915 64.1831 16.693C71.3266 14.2563 71.3266 14.2563 78.4211 11.6811C80.0588 11.0696 81.7097 10.4954 83.3644 9.93151C85.0044 9.36333 86.5796 8.67956 88.1567 7.95606C86.874 7.64669 85.5912 7.3379 84.3083 7.02921C83.7682 6.89893 83.7682 6.89893 83.2171 6.76602C81.2138 6.28427 79.2088 5.81675 77.1958 5.377C77.1958 5.27062 77.1958 5.16423 77.1958 5.05462C80.4904 4.55186 83.7804 4.09462 87.0981 3.77186C94.3403 3.06335 101.602 1.91605 108.684 0.228416C109.818 -0.0329041 110.58 -0.112856 111.691 0.218892Z" fill="#F2F2F2"/>
<path d="M79.2109 8.2583C79.4984 8.26121 79.786 8.26412 80.0823 8.26712C80.3001 8.27086 80.5178 8.2746 80.7422 8.27845C79.9336 9.087 79.2421 9.27342 78.1606 9.64857C77.9621 9.71779 77.7637 9.78701 77.5592 9.85833C76.9017 10.0865 76.2431 10.3113 75.5841 10.5351C75.3589 10.6117 75.1337 10.6884 74.9017 10.7673C73.459 11.2569 72.0142 11.7404 70.5684 12.221C69.8243 12.4685 69.0805 12.717 68.3368 12.9656C65.5407 13.8979 62.7376 14.8004 59.9202 15.6661C58.9371 15.9785 57.9719 16.3169 57.0068 16.6805C55.3888 17.2828 53.748 17.7478 52.0854 18.2106C50.4964 18.6624 48.9276 19.1758 47.3555 19.6827C42.0614 21.3769 36.7349 22.8523 31.3371 24.1759C31.1064 24.233 30.8757 24.2901 30.638 24.3489C28.2207 24.945 25.8464 25.4963 23.3582 25.6871C23.4646 25.8998 23.571 26.1126 23.6806 26.3318C24.6054 26.5253 25.5058 26.6719 26.441 26.7953C26.7367 26.836 27.0325 26.8767 27.3373 26.9187C30.2804 27.3071 33.2348 27.5748 36.1908 27.8426C39.2578 28.1205 42.3214 28.4164 45.3809 28.7699C45.7172 28.8068 46.0535 28.8438 46.4 28.8819C46.8611 28.9368 46.8611 28.9368 47.3316 28.9928C47.5985 29.0237 47.8654 29.0547 48.1404 29.0866C48.8264 29.2333 48.8264 29.2333 49.7935 29.878C49.4666 31.9113 49.0326 33.9132 48.5846 35.9227C48.5073 36.2867 48.43 36.6508 48.3503 37.0259C47.7567 39.6699 47.0705 42.3258 45.0585 44.2442C43.8573 44.9909 43.1658 45.3053 41.734 45.03C40.2058 43.4326 38.1878 40.1854 38.1878 37.9376C36.706 37.772 35.2242 37.6068 33.7424 37.4417C33.2143 37.3828 32.6862 37.3239 32.1582 37.2648C29.4 36.9564 26.6419 36.6507 23.8808 36.3698C23.2704 36.307 23.2704 36.307 22.6476 36.243C21.8903 36.1656 21.1329 36.0899 20.3752 36.0161C15.9616 35.5631 15.9616 35.5631 14.5128 34.4115C12.8924 31.2356 14.5881 27.1839 15.419 23.9473C15.6876 22.8314 15.8971 21.7073 16.0974 20.5774C16.5304 18.7945 17.7115 17.6794 19.1672 16.6604C22.1059 14.9699 26.3452 15.115 29.6522 14.7443C29.9963 14.7047 30.3404 14.665 30.6949 14.6241C31.0045 14.5894 31.3142 14.5546 31.6332 14.5189C32.3903 14.4422 32.3903 14.4422 33.0296 14.0813C33.8456 13.9516 34.6586 13.8363 35.4777 13.7312C35.7262 13.6985 35.9746 13.6658 36.2306 13.6321C37.044 13.5254 37.8576 13.4205 38.6713 13.3157C39.2311 13.2427 39.7909 13.1698 40.3506 13.0968C43.8657 12.6407 47.3826 12.2075 50.9061 11.821C53.3374 11.5521 55.755 11.2102 58.1754 10.8575C60.0689 10.5854 61.9631 10.3176 63.8574 10.0516C64.111 10.0159 64.3645 9.98031 64.6258 9.9436C67.8823 9.48796 71.1355 9.06057 74.4124 8.7765C75.6812 8.6682 75.6812 8.6682 76.929 8.42579C77.7007 8.23287 78.417 8.24785 79.2109 8.2583Z" fill="#00FF88"/>
<path d="M53.0181 41.1621C52.3329 44.7384 51.3601 48.2062 50.3356 51.6973C50.0429 52.6976 49.757 53.6997 49.4719 54.7021C46.1791 55.3091 42.8884 55.7781 39.5587 56.1327C36.4895 56.4601 33.4294 56.8261 30.3708 57.2409C29.5623 57.3505 28.7539 57.4601 27.9454 57.5696C27.7367 57.5979 27.5281 57.6261 27.3131 57.6552C22.6849 58.28 18.0506 58.8599 13.4177 59.4491C12.7668 59.532 12.116 59.6151 11.4652 59.6983C10.4061 59.8336 9.34688 59.968 8.28763 60.102C7.99678 60.1393 7.70593 60.1765 7.40627 60.2148C5.42009 60.4644 3.43149 60.657 1.43701 60.8274C1.43701 60.6146 1.43701 60.4019 1.43701 60.1826C7.17404 58.2493 12.9091 56.325 18.7045 54.5728C20.8317 53.927 22.9197 53.2219 25.0049 52.4505C26.2071 52.0287 27.4271 51.7141 28.6594 51.394C29.4672 51.1609 30.22 50.8753 30.9954 50.5515C32.3306 49.9969 33.684 49.544 35.0655 49.1209C43.2298 46.9326 43.2298 46.9326 50.2905 42.5562C51.0944 41.8274 51.911 41.1621 53.0181 41.1621Z" fill="#F2F2F2"/>
<path d="M15.0835 40.8627C15.6366 40.8906 16.1896 40.9192 16.7426 40.9484C17.3162 40.9586 17.8898 40.9664 18.4635 40.9719C19.9647 40.9927 21.4629 41.0464 22.963 41.1073C24.497 41.1636 26.0316 41.1884 27.5663 41.216C30.5711 41.2745 33.5736 41.3679 36.5767 41.4836C36.794 41.892 37.0083 42.302 37.2214 42.7127C37.3411 42.9408 37.4608 43.169 37.5841 43.404C37.8662 44.0626 37.8662 44.0626 37.8662 45.0298C35.4956 46.0071 33.0982 46.8778 30.6731 47.7096C30.3097 47.8349 29.9464 47.9603 29.572 48.0894C26.9452 48.9931 24.3123 49.8782 21.6705 50.7373C20.5346 51.1103 19.4404 51.4991 18.3419 51.9748C17.0981 52.5021 15.8534 52.87 14.554 53.2304C13.0311 53.6639 11.542 54.1049 10.0809 54.7214C4.80885 56.9355 4.80885 56.9355 2.72656 56.3131C3.35405 55.0809 3.98385 53.8499 4.61552 52.6198C4.82861 52.2042 5.04115 51.7882 5.25304 51.3719C5.76815 50.3603 6.29132 49.3549 6.83249 48.3569C7.33 47.4303 7.77254 46.4962 8.19214 45.532C9.82057 42.0287 11.1779 40.7895 15.0835 40.8627Z" fill="#F2F2F2"/>
<path d="M111.692 0.218892C111.366 0.391769 111.041 0.564647 110.706 0.742763C106.598 2.95891 102.684 5.44505 98.7722 7.98849C97.9198 8.54205 97.0655 9.09242 96.2099 9.64101C94.0095 11.0538 91.8314 12.473 89.732 14.0347C89.125 14.4037 89.125 14.4037 88.1579 14.4037C87.8387 13.4462 87.8387 13.4462 87.5131 12.4694C87.8323 12.4694 88.1514 12.4694 88.4803 12.4694C88.7994 11.4055 89.1186 10.3417 89.4474 9.24559C83.6747 12.9973 78.2293 17.2173 72.8246 21.476C68.2948 25.0423 68.2948 25.0423 67.5254 25.0423C67.385 24.7502 67.2445 24.458 67.0998 24.157C66.0791 22.0609 65.0451 20.0651 63.6783 18.1665C63.3345 17.6275 63.3345 17.6275 63.3345 16.9828C63.6149 16.8871 63.8953 16.7915 64.1843 16.693C71.3278 14.2563 71.3278 14.2563 78.4222 11.6811C80.0599 11.0696 81.7108 10.4954 83.3655 9.93151C85.0055 9.36333 86.5807 8.67956 88.1579 7.95606C86.8752 7.64669 85.5923 7.3379 84.3094 7.02921C83.7693 6.89893 83.7693 6.89893 83.2183 6.76602C81.2149 6.28427 79.2099 5.81675 77.1969 5.377C77.1969 5.27062 77.1969 5.16423 77.1969 5.05462C80.4916 4.55186 83.7815 4.09462 87.0992 3.77186C94.3414 3.06335 101.603 1.91605 108.685 0.228416C109.819 -0.0329041 110.581 -0.112856 111.692 0.218892Z" fill="#00FF88"/>
<path d="M76.7444 84.333C78.7273 84.3375 80.683 84.3837 82.6603 84.5339C85.9219 84.7559 89.1856 84.7624 92.4536 84.7821C93.5872 84.789 94.7207 84.7977 95.8543 84.8069C98.6665 84.8292 101.479 84.8485 104.291 84.8678C106.677 84.8843 109.063 84.902 111.449 84.9213C112.56 84.9297 113.671 84.9365 114.781 84.9432C115.468 84.9485 116.155 84.954 116.842 84.9595C117.146 84.9609 117.449 84.9622 117.762 84.9636C119.941 84.9838 122.095 85.1374 124.264 85.343C124.264 85.4494 124.264 85.5557 124.264 85.6654C123.952 85.6699 123.952 85.6699 123.634 85.6745C118.576 85.7483 113.518 85.8236 108.459 85.9008C106.013 85.9381 103.567 85.9749 101.121 86.0103C98.9883 86.0412 96.8561 86.0731 94.724 86.1063C93.5951 86.1239 92.4662 86.1409 91.3372 86.1566C90.0768 86.1742 88.8164 86.1942 87.5559 86.2143C87.1819 86.2192 86.8079 86.2241 86.4225 86.2291C86.0785 86.235 85.7345 86.2408 85.3801 86.2469C85.082 86.2513 84.784 86.2558 84.4769 86.2604C83.6351 86.3107 82.8555 86.4551 82.0322 86.6325C80.9916 86.6988 79.9517 86.6922 78.9092 86.6929C78.4899 86.6989 78.4899 86.6989 78.0623 86.7049C77.7953 86.7055 77.5283 86.7062 77.2532 86.7068C76.8887 86.7088 76.8887 86.7088 76.5169 86.7108C75.907 86.6325 75.907 86.6325 75.2622 85.9877C75.4394 84.8185 75.5077 84.3962 76.7444 84.333Z" fill="#00FF88"/>
<path d="M46.7306 84.1037C47.1528 84.0991 47.575 84.0946 48.0101 84.0898C49.0424 84.1572 49.5842 84.2579 50.438 84.8089C50.438 85.4472 50.438 86.0855 50.438 86.7432C49.3365 86.7528 48.2351 86.7584 47.1336 86.7633C46.6748 86.7674 46.6748 86.7674 46.2067 86.7715C44.6999 86.7766 43.2193 86.7436 41.7198 86.5908C38.69 86.3292 35.6503 86.3083 32.6113 86.2483C31.9518 86.2344 31.2924 86.2204 30.633 86.2063C28.9095 86.1697 27.186 86.1346 25.4625 86.0998C23.699 86.0639 21.9354 86.0266 20.1719 85.9895C16.7206 85.917 13.2692 85.8461 9.81787 85.7761C9.81787 85.6697 9.81787 85.5633 9.81787 85.4537C13.004 85.2132 16.1713 85.0754 19.3672 85.0406C19.8043 85.0348 20.2415 85.0288 20.6786 85.0226C22.0485 85.0037 23.4185 84.9868 24.7885 84.9701C32.2608 84.882 32.2608 84.882 39.7301 84.6578C40.2069 84.6397 40.2069 84.6397 40.6932 84.6213C41.1291 84.6023 41.1291 84.6023 41.5738 84.5829C41.9497 84.5667 41.9497 84.5667 42.3332 84.5502C43.8365 84.4115 45.1891 84.1113 46.7306 84.1037Z" fill="#00FF88"/>
<path d="M51.7282 32.1348C52.5556 32.3095 52.9598 32.4051 53.6021 32.981C54.1474 34.0716 53.9227 34.8658 53.6625 36.0033C53.6056 36.3242 53.5487 36.645 53.49 36.9755C52.9433 39.686 52.9433 39.686 51.7282 40.5973C50.7611 40.8391 50.7611 40.8391 49.7939 40.8391C49.9753 38.757 50.354 36.8575 50.9424 34.8549C51.0179 34.5912 51.0933 34.3275 51.171 34.0558C51.3547 33.4149 51.5411 32.7747 51.7282 32.1348Z" fill="#F2F2F2"/>
<path d="M6.22897 62.3923C6.90363 62.3923 7.61901 62.4388 8.37509 62.5319C9.14281 62.625 9.86399 62.7878 10.5387 63.0204L10.2071 65.4283C9.85818 65.4167 9.44524 65.4108 8.96832 65.4108C8.50304 65.4108 8.0145 65.4108 7.50268 65.4108C6.99087 65.3992 6.48488 65.3934 5.9847 65.3934C5.78695 65.3934 5.61829 65.405 5.4787 65.4283C5.33912 65.4399 5.2228 65.4632 5.12974 65.4981C5.03669 65.533 4.96108 65.5853 4.90292 65.6551C4.85639 65.7133 4.82149 65.7889 4.79823 65.8819C4.7866 65.9634 4.79241 66.0448 4.81568 66.1262C4.85057 66.2076 4.92618 66.2891 5.0425 66.3705C5.15882 66.4519 5.3333 66.5508 5.56594 66.6671L7.58993 67.6267C8.25295 67.9408 8.75313 68.2723 9.09046 68.6213C9.42779 68.9703 9.64299 69.3716 9.73604 69.8252C9.84073 70.2672 9.85818 70.7849 9.78839 71.3781C9.6837 72.297 9.45687 73.0182 9.10791 73.5417C8.75895 74.0535 8.2355 74.4141 7.53758 74.6234C6.85129 74.8212 5.92654 74.9201 4.76333 74.9201C4.26315 74.9201 3.58268 74.8735 2.7219 74.7805C1.87276 74.699 0.988726 74.542 0.0697924 74.3094L0.418754 71.6747C1.09341 71.6863 1.71573 71.7038 2.2857 71.7271C2.86731 71.7387 3.35585 71.7503 3.75134 71.7619C4.14683 71.7619 4.42019 71.7619 4.5714 71.7619C4.932 71.7619 5.21117 71.7445 5.40891 71.7096C5.61829 71.6747 5.76951 71.6224 5.86256 71.5526C5.96725 71.4711 6.03123 71.3723 6.05449 71.256C6.07776 71.1513 6.07194 71.064 6.03704 70.9942C6.01378 70.9244 5.95562 70.8605 5.86256 70.8023C5.76951 70.7325 5.64155 70.6569 5.4787 70.5755L3.28024 69.4937C2.60558 69.1564 2.09959 68.8016 1.76226 68.4294C1.42493 68.0455 1.20974 67.6326 1.11668 67.1905C1.02362 66.7485 1.00617 66.2832 1.06433 65.7947C1.14576 65.1317 1.30279 64.5791 1.53543 64.1371C1.77971 63.6951 2.11122 63.352 2.52998 63.1077C2.94873 62.8518 3.46636 62.6715 4.08286 62.5668C4.69936 62.4505 5.41473 62.3923 6.22897 62.3923ZM16.1842 62.6366L14.4917 74.6758H10.7055L12.398 62.6366H16.1842ZM18.6444 66.9463L18.2605 69.6333H15.0675L15.4339 66.9463H18.6444ZM22.8494 62.6366L21.1569 74.6758H17.3707L19.0631 62.6366H22.8494ZM31.3305 62.6366C31.633 62.6366 31.9005 62.7355 32.1331 62.9332C32.3658 63.131 32.4995 63.381 32.5344 63.6835L34.0873 74.6758H30.3011L29.673 66.7718C29.6497 66.5391 29.6381 66.3123 29.6381 66.0913C29.6381 65.8703 29.6439 65.6493 29.6555 65.4283H29.167C29.1321 65.6144 29.0855 65.8238 29.0274 66.0564C28.9808 66.2774 28.9111 66.5043 28.818 66.7369L25.8693 74.6758H21.9434L26.5846 63.5439C26.701 63.2415 26.8754 63.0146 27.1081 62.8634C27.3407 62.7122 27.6083 62.6366 27.9107 62.6366H31.3305ZM31.9063 69.3716L31.5922 72.1284H25.2586L25.5901 69.3716H31.9063ZM41.376 62.4621C42.4927 62.4621 43.4232 62.5784 44.1677 62.8111C44.9121 63.0437 45.4472 63.4392 45.7729 63.9975C46.0986 64.5442 46.1975 65.3003 46.0695 66.2658C46.0114 66.7194 45.8892 67.144 45.7031 67.5395C45.5286 67.9234 45.2553 68.2432 44.8831 68.4992C44.5108 68.7551 43.999 68.9179 43.3476 68.9877L43.3302 69.1098C43.5279 69.1331 43.7373 69.2087 43.9583 69.3367C44.191 69.453 44.3945 69.6449 44.569 69.9124C44.7551 70.18 44.8714 70.558 44.918 71.0466L45.3716 74.6758H41.4632L41.1492 71.0291C41.1375 70.6918 41.0852 70.4824 40.9921 70.401C40.8991 70.3196 40.7188 70.2789 40.4512 70.2789C39.5556 70.2672 38.8286 70.2614 38.2702 70.2614C37.7119 70.2614 37.2408 70.2556 36.8569 70.244C36.4847 70.2323 36.1183 70.2149 35.7577 70.1916L36.0369 67.6093H40.8177C41.1666 67.6093 41.4342 67.5744 41.6203 67.5046C41.818 67.4348 41.9634 67.301 42.0565 67.1033C42.1612 66.8939 42.2426 66.6031 42.3007 66.2309C42.3473 65.9517 42.3473 65.7307 42.3007 65.5679C42.2542 65.405 42.1553 65.2945 42.0041 65.2364C41.8529 65.1666 41.6319 65.1317 41.3411 65.1317C40.0965 65.1317 39.0554 65.1433 38.2179 65.1666C37.392 65.1782 36.8337 65.2015 36.5429 65.2364L36.508 62.6366C37.0314 62.5784 37.52 62.5377 37.9736 62.5145C38.4389 62.4912 38.9391 62.4796 39.4742 62.4796C40.0092 62.4679 40.6432 62.4621 41.376 62.4621ZM40.207 62.6366L38.5145 74.6758H34.8155L36.508 62.6366H40.207ZM53.0304 62.4621C54.2634 62.4621 55.2347 62.5901 55.9442 62.846C56.6538 63.0902 57.1365 63.5206 57.3924 64.1371C57.6483 64.7536 57.7007 65.6086 57.5494 66.702C57.4098 67.7373 57.1656 68.5399 56.8166 69.1098C56.4793 69.6798 55.9849 70.0753 55.3335 70.2963C54.6938 70.5173 53.8446 70.6278 52.7861 70.6278C52.1929 70.6278 51.6054 70.5987 51.0238 70.5406C50.4539 70.4708 49.9188 70.3835 49.4186 70.2789C48.9301 70.1742 48.5113 70.0637 48.1624 69.9473C47.8134 69.831 47.5749 69.7263 47.447 69.6333L47.5517 67.9583C48.3427 67.9583 49.1627 67.9583 50.0119 67.9583C50.861 67.9583 51.6752 67.9583 52.4546 67.9583C52.757 67.9583 52.9955 67.9292 53.17 67.871C53.3444 67.8129 53.4782 67.6733 53.5713 67.4523C53.676 67.2313 53.7574 66.8881 53.8155 66.4228C53.8621 66.0971 53.8679 65.8412 53.833 65.6551C53.8097 65.469 53.7283 65.3352 53.5887 65.2538C53.4491 65.1724 53.2339 65.1317 52.9431 65.1317C51.745 65.1317 50.7272 65.1433 49.8897 65.1666C49.0638 65.1782 48.5055 65.2015 48.2147 65.2364L48.1798 62.6366C48.7032 62.5784 49.1918 62.5377 49.6454 62.5145C50.0991 62.4912 50.5876 62.4796 51.1111 62.4796C51.6462 62.4679 52.2859 62.4621 53.0304 62.4621ZM51.9486 62.6366L50.2561 74.6758H46.4873L48.1798 62.6366H51.9486Z" fill="white"/>
<path d="M78.2025 62.6366C78.6329 62.6366 78.9586 62.7587 79.1796 63.003C79.4006 63.2473 79.4879 63.5846 79.4414 64.015L78.3596 74.6758H74.9572L75.8994 65.4632H75.6551L73.6311 71.6747C73.5148 72.0586 73.3345 72.3377 73.0902 72.5122C72.846 72.6751 72.5203 72.7565 72.1131 72.7565H70.1939C69.7984 72.7565 69.4785 72.6518 69.2342 72.4424C69.0016 72.2214 68.8736 71.919 68.8504 71.5351L68.5188 65.4632H68.2397L66.6519 74.6758H63.2495L65.1863 63.8754C65.2677 63.445 65.4073 63.131 65.605 62.9332C65.8144 62.7355 66.1343 62.6366 66.5647 62.6366H69.7751C70.1706 62.6366 70.4847 62.7471 70.7173 62.9681C70.9499 63.1775 71.0721 63.4799 71.0837 63.8754L71.2931 68.6562C71.3164 68.947 71.3222 69.2436 71.3105 69.546C71.2989 69.8368 71.2815 70.1393 71.2582 70.4533H71.4327C71.5025 70.116 71.5723 69.8136 71.642 69.546C71.7118 69.2669 71.7875 68.9819 71.8689 68.6911L73.3345 63.7358C73.4392 63.3403 73.6137 63.0612 73.858 62.8983C74.1139 62.7238 74.4396 62.6366 74.8351 62.6366H78.2025ZM88.3096 62.6366C88.6121 62.6366 88.8796 62.7355 89.1122 62.9332C89.3449 63.131 89.4786 63.381 89.5135 63.6835L91.0664 74.6758H87.2802L86.6521 66.7718C86.6288 66.5391 86.6172 66.3123 86.6172 66.0913C86.6172 65.8703 86.623 65.6493 86.6346 65.4283H86.1461C86.1112 65.6144 86.0646 65.8238 86.0065 66.0564C85.9599 66.2774 85.8902 66.5043 85.7971 66.7369L82.8484 74.6758H78.9225L83.5637 63.5439C83.6801 63.2415 83.8545 63.0146 84.0872 62.8634C84.3198 62.7122 84.5874 62.6366 84.8898 62.6366H88.3096ZM88.8854 69.3716L88.5713 72.1284H82.2377L82.5692 69.3716H88.8854ZM98.8333 62.6366L97.1408 74.6758H93.3546L95.047 62.6366H98.8333ZM102.166 62.6366L101.765 65.4632H91.3306L91.7319 62.6366H102.166ZM108.119 62.4621C109.235 62.4621 110.166 62.5784 110.91 62.8111C111.655 63.0437 112.19 63.4392 112.515 63.9975C112.841 64.5442 112.94 65.3003 112.812 66.2658C112.754 66.7194 112.632 67.144 112.446 67.5395C112.271 67.9234 111.998 68.2432 111.626 68.4992C111.253 68.7551 110.742 68.9179 110.09 68.9877L110.073 69.1098C110.27 69.1331 110.48 69.2087 110.701 69.3367C110.933 69.453 111.137 69.6449 111.312 69.9124C111.498 70.18 111.614 70.558 111.661 71.0466L112.114 74.6758H108.206L107.892 71.0291C107.88 70.6918 107.828 70.4824 107.735 70.401C107.642 70.3196 107.461 70.2789 107.194 70.2789C106.298 70.2672 105.571 70.2614 105.013 70.2614C104.454 70.2614 103.983 70.2556 103.599 70.244C103.227 70.2323 102.861 70.2149 102.5 70.1916L102.779 67.6093H107.56C107.909 67.6093 108.177 67.5744 108.363 67.5046C108.561 67.4348 108.706 67.301 108.799 67.1033C108.904 66.8939 108.985 66.6031 109.043 66.2309C109.09 65.9517 109.09 65.7307 109.043 65.5679C108.997 65.405 108.898 65.2945 108.747 65.2364C108.595 65.1666 108.374 65.1317 108.084 65.1317C106.839 65.1317 105.798 65.1433 104.96 65.1666C104.135 65.1782 103.576 65.2015 103.285 65.2364L103.251 62.6366C103.774 62.5784 104.263 62.5377 104.716 62.5145C105.181 62.4912 105.682 62.4796 106.217 62.4796C106.752 62.4679 107.386 62.4621 108.119 62.4621ZM106.95 62.6366L105.257 74.6758H101.558L103.251 62.6366H106.95ZM118.709 62.6366L117.016 74.6758H113.247L114.94 62.6366H118.709ZM123.494 62.6366L125.152 68.883L121.871 74.6758H117.858L121.662 68.534L119.847 62.6366H123.494ZM126.478 67.4523L126.181 69.546H122.569L122.866 67.4523H126.478ZM131.224 62.6366L127.664 68.534L129.706 74.6758H125.989L124.262 68.1502L127.367 62.6366H131.224Z" fill="#00FF88"/>
<path d="M62.5727 80.0848C62.8751 80.0848 63.1426 80.1837 63.3753 80.3814C63.6079 80.5792 63.7417 80.8293 63.7766 81.1317L65.3295 92.124H61.5432L60.9151 84.22C60.8918 83.9874 60.8802 83.7606 60.8802 83.5396C60.8802 83.3185 60.886 83.0975 60.8976 82.8765H60.4091C60.3742 83.0626 60.3277 83.272 60.2695 83.5047C60.223 83.7257 60.1532 83.9525 60.0601 84.1851L57.1114 92.124H53.1856L57.8268 80.9921C57.9431 80.6897 58.1176 80.4629 58.3502 80.3117C58.5829 80.1604 58.8504 80.0848 59.1528 80.0848H62.5727ZM63.1484 86.8198L62.8344 89.5766H56.5007L56.8322 86.8198H63.1484Z" fill="white"/>
<path d="M71.5363 80.0848L69.8439 92.124H66.0751L67.7675 80.0848H71.5363Z" fill="#00FF88"/>
</svg>
